<svg width="249" height="210" viewBox="0 0 249 210" fill="none" xmlns="http://www.w3.org/2000/svg">
<path d="M34.1 90.5C34.5 90.5 34.8 90.3 34.9 90C34.4 90.1 33.9 90.1 33.4 90.2C33.6 90.4 33.8 90.5 34.1 90.5Z" fill="#CB43A2"/>
<path d="M38.1 90.5C38.5 90.5 38.8 90.2 38.9 89.8C38.6 89.8 38.3 89.8 38 89.8C37.7 89.8 37.5 89.8 37.2 89.8C37.4 90.2 37.7 90.5 38.1 90.5Z" fill="#CB43A2"/>
<path d="M22.8 94C22.4 94.2 22 94.5 21.6 94.8C21.7 94.8 21.8 94.9 22 94.9C22.5 94.8 22.8 94.4 22.8 94Z" fill="#CB43A2"/>
<path d="M26 93.1001C25.5 93.1001 25.1 93.5001 25.1 94.0001C25.1 94.5001 25.5 94.9001 26 94.9001C26.5 94.9001 26.9 94.5001 26.9 94.0001C26.9 93.5001 26.5 93.1001 26 93.1001Z" fill="#CB43A2"/>
<path d="M30.1 94.8C30.5971 94.8 31 94.3971 31 93.9C31 93.4029 30.5971 93 30.1 93C29.603 93 29.2 93.4029 29.2 93.9C29.2 94.3971 29.603 94.8 30.1 94.8Z" fill="#CB43A2"/>
<path d="M34.1 93.1001C33.6 93.1001 33.2 93.5001 33.2 94.0001C33.2 94.5001 33.6 94.9001 34.1 94.9001C34.6 94.9001 35 94.5001 35 94.0001C35 93.5001 34.6 93.1001 34.1 93.1001Z" fill="#CB43A2"/>
<path d="M38.1 94.8C38.5971 94.8 39 94.3971 39 93.9C39 93.4029 38.5971 93 38.1 93C37.603 93 37.2 93.4029 37.2 93.9C37.2 94.3971 37.603 94.8 38.1 94.8Z" fill="#CB43A2"/>
<path d="M17.9 99.1001C18.4 99.1001 18.8 98.7001 18.8 98.2001C18.8 97.8001 18.5 97.5001 18.1 97.4001C17.8 97.7001 17.4 98.0001 17.1 98.3001C17.2 98.8001 17.5 99.1001 17.9 99.1001Z" fill="#CB43A2"/>
<path d="M22 97.4001C21.5 97.4001 21.1 97.8001 21.1 98.3001C21.1 98.8001 21.5 99.2001 22 99.2001C22.5 99.2001 22.9 98.8001 22.9 98.3001C22.8 97.8001 22.5 97.4001 22 97.4001Z" fill="#CB43A2"/>
<path d="M26 97.4001C25.5 97.4001 25.1 97.8001 25.1 98.3001C25.1 98.8001 25.5 99.2001 26 99.2001C26.5 99.2001 26.9 98.8001 26.9 98.3001C26.9 97.8001 26.5 97.4001 26 97.4001Z" fill="#CB43A2"/>
<path d="M30.1 97.4001C29.6 97.4001 29.2 97.8001 29.2 98.3001C29.2 98.8001 29.6 99.2001 30.1 99.2001C30.6 99.2001 31 98.8001 31 98.3001C30.9 97.8001 30.5 97.4001 30.1 97.4001Z" fill="#CB43A2"/>
<path d="M34.1 97.4001C33.6 97.4001 33.2 97.8001 33.2 98.3001C33.2 98.8001 33.6 99.2001 34.1 99.2001C34.6 99.2001 35 98.8001 35 98.3001C35 97.8001 34.6 97.4001 34.1 97.4001Z" fill="#CB43A2"/>
<path d="M38.1 97.4001C37.6 97.4001 37.2 97.8001 37.2 98.3001C37.2 98.8001 37.6 99.2001 38.1 99.2001C38.6 99.2001 39 98.8001 39 98.3001C39 97.8001 38.6 97.4001 38.1 97.4001Z" fill="#CB43A2"/>
<path d="M13.9 103.4C14.4 103.4 14.8 103 14.8 102.5C14.8 102.1 14.5 101.8 14.2 101.7C13.9 102.1 13.6 102.6 13.3 103C13.4 103.3 13.6 103.4 13.9 103.4Z" fill="#CB43A2"/>
<path d="M17.9 101.7C17.4 101.7 17 102.1 17 102.6C17 103.1 17.4 103.5 17.9 103.5C18.4 103.5 18.8 103.1 18.8 102.6C18.8 102.1 18.4 101.7 17.9 101.7Z" fill="#CB43A2"/>
<path d="M22 101.7C21.5 101.7 21.1 102.1 21.1 102.6C21.1 103.1 21.5 103.5 22 103.5C22.5 103.5 22.9 103.1 22.9 102.6C22.8 102.1 22.5 101.7 22 101.7Z" fill="#CB43A2"/>
<path d="M26 101.7C25.5 101.7 25.1 102.1 25.1 102.6C25.1 103.1 25.5 103.5 26 103.5C26.5 103.5 26.9 103.1 26.9 102.6C26.9 102.1 26.5 101.7 26 101.7Z" fill="#CB43A2"/>
<path d="M30.1 101.7C29.6 101.7 29.2 102.1 29.2 102.6C29.2 103.1 29.6 103.5 30.1 103.5C30.6 103.5 31 103.1 31 102.6C30.9 102.1 30.5 101.7 30.1 101.7Z" fill="#CB43A2"/>
<path d="M34.1 101.7C33.6 101.7 33.2 102.1 33.2 102.6C33.2 103.1 33.6 103.5 34.1 103.5C34.6 103.5 35 103.1 35 102.6C35 102.1 34.6 101.7 34.1 101.7Z" fill="#CB43A2"/>
<path d="M38.1 101.7C37.6 101.7 37.2 102.1 37.2 102.6C37.2 103.1 37.6 103.5 38.1 103.5C38.6 103.5 39 103.1 39 102.6C39 102.1 38.6 101.7 38.1 101.7Z" fill="#CB43A2"/>
<path d="M13.9 106C13.4 106 13 106.4 13 106.9C13 107.4 13.4 107.8 13.9 107.8C14.4 107.8 14.8 107.4 14.8 106.9C14.8 106.4 14.4 106 13.9 106Z" fill="#CB43A2"/>
<path d="M17.9 107.8C18.3971 107.8 18.8 107.397 18.8 106.9C18.8 106.403 18.3971 106 17.9 106C17.403 106 17 106.403 17 106.9C17 107.397 17.403 107.8 17.9 107.8Z" fill="#CB43A2"/>
<path d="M22 107.8C22.497 107.8 22.9 107.397 22.9 106.9C22.9 106.403 22.497 106 22 106C21.5029 106 21.1 106.403 21.1 106.9C21.1 107.397 21.5029 107.8 22 107.8Z" fill="#CB43A2"/>
<path d="M26 106C25.5 106 25.1 106.4 25.1 106.9C25.1 107.4 25.5 107.8 26 107.8C26.5 107.8 26.9 107.4 26.9 106.9C26.9 106.4 26.5 106 26 106Z" fill="#CB43A2"/>
<path d="M30.1 107.8C30.5971 107.8 31 107.397 31 106.9C31 106.403 30.5971 106 30.1 106C29.603 106 29.2 106.403 29.2 106.9C29.2 107.397 29.603 107.8 30.1 107.8Z" fill="#CB43A2"/>
<path d="M34.1 106C33.6 106 33.2 106.4 33.2 106.9C33.2 107.4 33.6 107.8 34.1 107.8C34.6 107.8 35 107.4 35 106.9C35 106.4 34.6 106 34.1 106Z" fill="#CB43A2"/>
<path d="M38.1 107.8C38.5971 107.8 39 107.397 39 106.9C39 106.403 38.5971 106 38.1 106C37.603 106 37.2 106.403 37.2 106.9C37.2 107.397 37.603 107.8 38.1 107.8Z" fill="#CB43A2"/>
<path d="M9.90003 112C10.4 112 10.8 111.6 10.8 111.1C10.8 110.6 10.4 110.2 9.90003 110.2C9.80003 110.2 9.70003 110.2 9.60003 110.3C9.50003 110.7 9.30003 111.2 9.20003 111.6C9.40003 111.9 9.60003 112 9.90003 112Z" fill="#CB43A2"/>
<path d="M13.9 110.3C13.4 110.3 13 110.7 13 111.2C13 111.7 13.4 112 13.9 112C14.4 112 14.8 111.6 14.8 111.1C14.8 110.7 14.4 110.3 13.9 110.3Z" fill="#CB43A2"/>
<path d="M17.9 110.3C17.4 110.3 17 110.7 17 111.2C17 111.7 17.4 112.1 17.9 112.1C18.4 112.1 18.8 111.7 18.8 111.2C18.8 110.7 18.4 110.3 17.9 110.3Z" fill="#CB43A2"/>
<path d="M22 110.3C21.5 110.3 21.1 110.7 21.1 111.2C21.1 111.7 21.5 112.1 22 112.1C22.5 112.1 22.9 111.7 22.9 111.2C22.8 110.7 22.5 110.3 22 110.3Z" fill="#CB43A2"/>
<path d="M26 110.3C25.5 110.3 25.1 110.7 25.1 111.2C25.1 111.7 25.5 112.1 26 112.1C26.5 112.1 26.9 111.7 26.9 111.2C26.9 110.7 26.5 110.3 26 110.3Z" fill="#CB43A2"/>
<path d="M30.1 110.3C29.6 110.3 29.2 110.7 29.2 111.2C29.2 111.7 29.6 112.1 30.1 112.1C30.6 112.1 31 111.7 31 111.2C30.9 110.7 30.5 110.3 30.1 110.3Z" fill="#CB43A2"/>
<path d="M34.1 110.3C33.6 110.3 33.2 110.7 33.2 111.2C33.2 111.7 33.6 112.1 34.1 112.1C34.6 112.1 35 111.7 35 111.2C35 110.7 34.6 110.3 34.1 110.3Z" fill="#CB43A2"/>
<path d="M38.1 110.3C37.6 110.3 37.2 110.7 37.2 111.2C37.2 111.7 37.6 112.1 38.1 112.1C38.6 112.1 39 111.7 39 111.2C39 110.7 38.6 110.3 38.1 110.3Z" fill="#CB43A2"/>
<path d="M9.90002 116.4C10.3971 116.4 10.8 115.997 10.8 115.5C10.8 115.003 10.3971 114.6 9.90002 114.6C9.40296 114.6 9.00002 115.003 9.00002 115.5C9.00002 115.997 9.40296 116.4 9.90002 116.4Z" fill="#CB43A2"/>
<path d="M13.9 114.6C13.4 114.6 13 115 13 115.5C13 116 13.4 116.4 13.9 116.4C14.4 116.4 14.8 116 14.8 115.5C14.8 115 14.4 114.6 13.9 114.6Z" fill="#CB43A2"/>
<path d="M17.9 116.4C18.3971 116.4 18.8 115.997 18.8 115.5C18.8 115.003 18.3971 114.6 17.9 114.6C17.403 114.6 17 115.003 17 115.5C17 115.997 17.403 116.4 17.9 116.4Z" fill="#CB43A2"/>
<path d="M22 116.4C22.497 116.4 22.9 115.997 22.9 115.5C22.9 115.003 22.497 114.6 22 114.6C21.5029 114.6 21.1 115.003 21.1 115.5C21.1 115.997 21.5029 116.4 22 116.4Z" fill="#CB43A2"/>
<path d="M26 114.6C25.5 114.6 25.1 115 25.1 115.5C25.1 116 25.5 116.4 26 116.4C26.5 116.4 26.9 116 26.9 115.5C26.9 115 26.5 114.6 26 114.6Z" fill="#CB43A2"/>
<path d="M30.1 116.4C30.5971 116.4 31 115.997 31 115.5C31 115.003 30.5971 114.6 30.1 114.6C29.603 114.6 29.2 115.003 29.2 115.5C29.2 115.997 29.603 116.4 30.1 116.4Z" fill="#CB43A2"/>
<path d="M34.1 114.6C33.6 114.6 33.2 115 33.2 115.5C33.2 116 33.6 116.4 34.1 116.4C34.6 116.4 35 116 35 115.5C35 115 34.6 114.6 34.1 114.6Z" fill="#CB43A2"/>
<path d="M38.1 116.4C38.5971 116.4 39 115.997 39 115.5C39 115.003 38.5971 114.6 38.1 114.6C37.603 114.6 37.2 115.003 37.2 115.5C37.2 115.997 37.603 116.4 38.1 116.4Z" fill="#CB43A2"/>
<path d="M9.90002 120.7C10.3971 120.7 10.8 120.297 10.8 119.8C10.8 119.303 10.3971 118.9 9.90002 118.9C9.40296 118.9 9.00002 119.303 9.00002 119.8C9.00002 120.297 9.40296 120.7 9.90002 120.7Z" fill="#CB43A2"/>
<path d="M13.9 119C13.4 119 13 119.4 13 119.9C13 120.4 13.4 120.8 13.9 120.8C14.4 120.8 14.8 120.4 14.8 119.9C14.8 119.3 14.4 119 13.9 119Z" fill="#CB43A2"/>
<path d="M17.9 120.7C18.3971 120.7 18.8 120.297 18.8 119.8C18.8 119.303 18.3971 118.9 17.9 118.9C17.403 118.9 17 119.303 17 119.8C17 120.297 17.403 120.7 17.9 120.7Z" fill="#CB43A2"/>
<path d="M22 120.7C22.497 120.7 22.9 120.297 22.9 119.8C22.9 119.303 22.497 118.9 22 118.9C21.5029 118.9 21.1 119.303 21.1 119.8C21.1 120.297 21.5029 120.7 22 120.7Z" fill="#CB43A2"/>
<path d="M26 119C25.5 119 25.1 119.4 25.1 119.9C25.1 120.4 25.5 120.8 26 120.8C26.5 120.8 26.9 120.4 26.9 119.9C26.9 119.3 26.5 119 26 119Z" fill="#CB43A2"/>
<path d="M30.1 120.7C30.5971 120.7 31 120.297 31 119.8C31 119.303 30.5971 118.9 30.1 118.9C29.603 118.9 29.2 119.303 29.2 119.8C29.2 120.297 29.603 120.7 30.1 120.7Z" fill="#CB43A2"/>
<path d="M34.1 119C33.6 119 33.2 119.4 33.2 119.9C33.2 120.4 33.6 120.8 34.1 120.8C34.6 120.8 35 120.4 35 119.9C35 119.3 34.6 119 34.1 119Z" fill="#CB43A2"/>
<path d="M38.1 120.7C38.5971 120.7 39 120.297 39 119.8C39 119.303 38.5971 118.9 38.1 118.9C37.603 118.9 37.2 119.303 37.2 119.8C37.2 120.297 37.603 120.7 38.1 120.7Z" fill="#CB43A2"/>
<path d="M42.1 90.5C42.4 90.5 42.6 90.4 42.8 90.2C42.3 90.1 41.8 90.1 41.3 90C41.5 90.3 41.8 90.5 42.1 90.5Z" fill="#CB43A2"/>
<path d="M42.1 93.1001C41.6 93.1001 41.2 93.5001 41.2 94.0001C41.2 94.5001 41.6 94.9001 42.1 94.9001C42.6 94.9001 43 94.5001 43 94.0001C43 93.5001 42.6 93.1001 42.1 93.1001Z" fill="#CB43A2"/>
<path d="M46.2 93.1001C45.7 93.1001 45.3 93.5001 45.3 94.0001C45.3 94.5001 45.7 94.9001 46.2 94.9001C46.7 94.9001 47.1 94.5001 47.1 94.0001C47 93.5001 46.7 93.1001 46.2 93.1001Z" fill="#CB43A2"/>
<path d="M50.2 94.8C50.6971 94.8 51.1 94.3971 51.1 93.9C51.1 93.4029 50.6971 93 50.2 93C49.7029 93 49.3 93.4029 49.3 93.9C49.3 94.3971 49.7029 94.8 50.2 94.8Z" fill="#CB43A2"/>
<path d="M54.3 94.8001C54.4 94.8001 54.5 94.8001 54.7 94.7001C54.3 94.4001 53.9 94.2001 53.5 93.9001C53.4 94.4001 53.8 94.8001 54.3 94.8001Z" fill="#CB43A2"/>
<path d="M42.1 97.4001C41.6 97.4001 41.2 97.8001 41.2 98.3001C41.2 98.8001 41.6 99.2001 42.1 99.2001C42.6 99.2001 43 98.8001 43 98.3001C43 97.8001 42.6 97.4001 42.1 97.4001Z" fill="#CB43A2"/>
<path d="M46.2 97.4001C45.7 97.4001 45.3 97.8001 45.3 98.3001C45.3 98.8001 45.7 99.2001 46.2 99.2001C46.7 99.2001 47.1 98.8001 47.1 98.3001C47 97.8001 46.7 97.4001 46.2 97.4001Z" fill="#CB43A2"/>
<path d="M50.2 97.4001C49.7 97.4001 49.3 97.8001 49.3 98.3001C49.3 98.8001 49.7 99.2001 50.2 99.2001C50.7 99.2001 51.1 98.8001 51.1 98.3001C51.1 97.8001 50.7 97.4001 50.2 97.4001Z" fill="#CB43A2"/>
<path d="M54.3 97.4001C53.8 97.4001 53.4 97.8001 53.4 98.3001C53.4 98.8001 53.8 99.2001 54.3 99.2001C54.8 99.2001 55.2 98.8001 55.2 98.3001C55.1 97.8001 54.7 97.4001 54.3 97.4001Z" fill="#CB43A2"/>
<path d="M57.4 98.3C57.4 98.8 57.8 99.2 58.3 99.2C58.7 99.2 59.1 98.9 59.1 98.5C58.8 98.2 58.4 97.9 58.1 97.6C57.7 97.5 57.4 97.8 57.4 98.3Z" fill="#CB43A2"/>
<path d="M42.1 101.7C41.6 101.7 41.2 102.1 41.2 102.6C41.2 103.1 41.6 103.5 42.1 103.5C42.6 103.5 43 103.1 43 102.6C43 102.1 42.6 101.7 42.1 101.7Z" fill="#CB43A2"/>
<path d="M46.2 101.7C45.7 101.7 45.3 102.1 45.3 102.6C45.3 103.1 45.7 103.5 46.2 103.5C46.7 103.5 47.1 103.1 47.1 102.6C47 102.1 46.7 101.7 46.2 101.7Z" fill="#CB43A2"/>
<path d="M50.2 101.7C49.7 101.7 49.3 102.1 49.3 102.6C49.3 103.1 49.7 103.5 50.2 103.5C50.7 103.5 51.1 103.1 51.1 102.6C51.1 102.1 50.7 101.7 50.2 101.7Z" fill="#CB43A2"/>
<path d="M54.3 101.7C53.8 101.7 53.4 102.1 53.4 102.6C53.4 103.1 53.8 103.5 54.3 103.5C54.8 103.5 55.2 103.1 55.2 102.6C55.1 102.1 54.7 101.7 54.3 101.7Z" fill="#CB43A2"/>
<path d="M58.3 101.7C57.8 101.7 57.4 102.1 57.4 102.6C57.4 103.1 57.8 103.5 58.3 103.5C58.8 103.5 59.2 103.1 59.2 102.6C59.2 102.1 58.8 101.7 58.3 101.7Z" fill="#CB43A2"/>
<path d="M61.5 102.6C61.5 103.1 61.9 103.5 62.4 103.5C62.7 103.5 62.9 103.3 63.1 103.1C62.8 102.7 62.5 102.2 62.2 101.8C61.8 101.9 61.5 102.2 61.5 102.6Z" fill="#CB43A2"/>
<path d="M42.1 106C41.6 106 41.2 106.4 41.2 106.9C41.2 107.4 41.6 107.8 42.1 107.8C42.6 107.8 43 107.4 43 106.9C43 106.4 42.6 106 42.1 106Z" fill="#CB43A2"/>
<path d="M46.2 106C45.7 106 45.3 106.4 45.3 106.9C45.3 107.4 45.7 107.8 46.2 107.8C46.7 107.8 47.1 107.4 47.1 106.9C47 106.4 46.7 106 46.2 106Z" fill="#CB43A2"/>
<path d="M50.2 107.8C50.6971 107.8 51.1 107.397 51.1 106.9C51.1 106.403 50.6971 106 50.2 106C49.7029 106 49.3 106.403 49.3 106.9C49.3 107.397 49.7029 107.8 50.2 107.8Z" fill="#CB43A2"/>
<path d="M54.3 106C53.8 106 53.4 106.4 53.4 106.9C53.4 107.4 53.8 107.8 54.3 107.8C54.8 107.8 55.2 107.4 55.2 106.9C55.1 106.4 54.7 106 54.3 106Z" fill="#CB43A2"/>
<path d="M58.3 106C57.8 106 57.4 106.4 57.4 106.9C57.4 107.4 57.8 107.8 58.3 107.8C58.8 107.8 59.2 107.4 59.2 106.9C59.2 106.4 58.8 106 58.3 106Z" fill="#CB43A2"/>
<path d="M62.3 106C61.8 106 61.4 106.4 61.4 106.9C61.4 107.4 61.8 107.8 62.3 107.8C62.8 107.8 63.2 107.4 63.2 106.9C63.2 106.4 62.8 106 62.3 106Z" fill="#CB43A2"/>
<path d="M42.1 110.3C41.6 110.3 41.2 110.7 41.2 111.2C41.2 111.7 41.6 112.1 42.1 112.1C42.6 112.1 43 111.7 43 111.2C43 110.7 42.6 110.3 42.1 110.3Z" fill="#CB43A2"/>
<path d="M46.2 110.3C45.7 110.3 45.3 110.7 45.3 111.2C45.3 111.7 45.7 112.1 46.2 112.1C46.7 112.1 47.1 111.7 47.1 111.2C47 110.7 46.7 110.3 46.2 110.3Z" fill="#CB43A2"/>
<path d="M50.2 110.3C49.7 110.3 49.3 110.7 49.3 111.2C49.3 111.7 49.7 112.1 50.2 112.1C50.7 112.1 51.1 111.7 51.1 111.2C51.1 110.7 50.7 110.3 50.2 110.3Z" fill="#CB43A2"/>
<path d="M54.3 110.3C53.8 110.3 53.4 110.7 53.4 111.2C53.4 111.7 53.8 112.1 54.3 112.1C54.8 112.1 55.2 111.7 55.2 111.2C55.1 110.7 54.7 110.3 54.3 110.3Z" fill="#CB43A2"/>
<path d="M58.3 110.3C57.8 110.3 57.4 110.7 57.4 111.2C57.4 111.7 57.8 112.1 58.3 112.1C58.8 112.1 59.2 111.7 59.2 111.2C59.2 110.7 58.8 110.3 58.3 110.3Z" fill="#CB43A2"/>
<path d="M62.3 110.3C61.8 110.3 61.4 110.7 61.4 111.2C61.4 111.7 61.8 112.1 62.3 112.1C62.8 112.1 63.2 111.7 63.2 111.2C63.2 110.7 62.8 110.3 62.3 110.3Z" fill="#CB43A2"/>
<path d="M65.5 111.2C65.5 111.7 65.9 112.1 66.4 112.1C66.7 112.1 66.9 112 67.1 111.8C67 111.3 66.8 110.9 66.7 110.5C66.6 110.5 66.5 110.4 66.4 110.4C65.9 110.3 65.5 110.7 65.5 111.2Z" fill="#CB43A2"/>
<path d="M42.1 114.6C41.6 114.6 41.2 115 41.2 115.5C41.2 116 41.6 116.4 42.1 116.4C42.6 116.4 43 116 43 115.5C43 115 42.6 114.6 42.1 114.6Z" fill="#CB43A2"/>
<path d="M46.2 114.6C45.7 114.6 45.3 115 45.3 115.5C45.3 116 45.7 116.4 46.2 116.4C46.7 116.4 47.1 116 47.1 115.5C47 115 46.7 114.6 46.2 114.6Z" fill="#CB43A2"/>
<path d="M50.2 116.4C50.6971 116.4 51.1 115.997 51.1 115.5C51.1 115.003 50.6971 114.6 50.2 114.6C49.7029 114.6 49.3 115.003 49.3 115.5C49.3 115.997 49.7029 116.4 50.2 116.4Z" fill="#CB43A2"/>
<path d="M54.3 114.6C53.8 114.6 53.4 115 53.4 115.5C53.4 116 53.8 116.4 54.3 116.4C54.8 116.4 55.2 116 55.2 115.5C55.1 115 54.7 114.6 54.3 114.6Z" fill="#CB43A2"/>
<path d="M58.3 114.6C57.8 114.6 57.4 115 57.4 115.5C57.4 116 57.8 116.4 58.3 116.4C58.8 116.4 59.2 116 59.2 115.5C59.2 115 58.8 114.6 58.3 114.6Z" fill="#CB43A2"/>
<path d="M62.3 114.6C61.8 114.6 61.4 115 61.4 115.5C61.4 116 61.8 116.4 62.3 116.4C62.8 116.4 63.2 116 63.2 115.5C63.2 115 62.8 114.6 62.3 114.6Z" fill="#CB43A2"/>
<path d="M66.4 114.6C65.9 114.6 65.5 115 65.5 115.5C65.5 116 65.9 116.4 66.4 116.4C66.9 116.4 67.3 116 67.3 115.5C67.2 115 66.9 114.6 66.4 114.6Z" fill="#CB43A2"/>
<path d="M42.1 119C41.6 119 41.2 119.4 41.2 119.9C41.2 120.4 41.6 120.8 42.1 120.8C42.6 120.8 43 120.4 43 119.9C43 119.3 42.6 119 42.1 119Z" fill="#CB43A2"/>
<path d="M46.2 119C45.7 119 45.3 119.4 45.3 119.9C45.3 120.4 45.7 120.8 46.2 120.8C46.7 120.8 47.1 120.4 47.1 119.9C47 119.3 46.7 119 46.2 119Z" fill="#CB43A2"/>
<path d="M50.2 120.7C50.6971 120.7 51.1 120.297 51.1 119.8C51.1 119.303 50.6971 118.9 50.2 118.9C49.7029 118.9 49.3 119.303 49.3 119.8C49.3 120.297 49.7029 120.7 50.2 120.7Z" fill="#CB43A2"/>
<path d="M54.3 119C53.8 119 53.4 119.4 53.4 119.9C53.4 120.4 53.8 120.8 54.3 120.8C54.8 120.8 55.2 120.4 55.2 119.9C55.1 119.3 54.7 119 54.3 119Z" fill="#CB43A2"/>
<path d="M58.3 119C57.8 119 57.4 119.4 57.4 119.9C57.4 120.4 57.8 120.8 58.3 120.8C58.8 120.8 59.2 120.4 59.2 119.9C59.2 119.3 58.8 119 58.3 119Z" fill="#CB43A2"/>
<path d="M62.3 119C61.8 119 61.4 119.4 61.4 119.9C61.4 120.4 61.8 120.8 62.3 120.8C62.8 120.8 63.2 120.4 63.2 119.9C63.2 119.3 62.8 119 62.3 119Z" fill="#CB43A2"/>
<path d="M66.4 119C65.9 119 65.5 119.4 65.5 119.9C65.5 120.4 65.9 120.8 66.4 120.8C66.9 120.8 67.3 120.4 67.3 119.9C67.2 119.3 66.9 119 66.4 119Z" fill="#CB43A2"/>
<path d="M9.90002 125C10.3971 125 10.8 124.597 10.8 124.1C10.8 123.603 10.3971 123.2 9.90002 123.2C9.40296 123.2 9.00002 123.603 9.00002 124.1C9.00002 124.597 9.40296 125 9.90002 125Z" fill="#CB43A2"/>
<path d="M13.9 123.3C13.4 123.3 13 123.7 13 124.2C13 124.7 13.4 125.1 13.9 125.1C14.4 125.1 14.8 124.7 14.8 124.2C14.8 123.7 14.4 123.3 13.9 123.3Z" fill="#CB43A2"/>
<path d="M17.9 125C18.3971 125 18.8 124.597 18.8 124.1C18.8 123.603 18.3971 123.2 17.9 123.2C17.403 123.2 17 123.603 17 124.1C17 124.597 17.403 125 17.9 125Z" fill="#CB43A2"/>
<path d="M22 125C22.497 125 22.9 124.597 22.9 124.1C22.9 123.603 22.497 123.2 22 123.2C21.5029 123.2 21.1 123.603 21.1 124.1C21.1 124.597 21.5029 125 22 125Z" fill="#CB43A2"/>
<path d="M26 123.3C25.5 123.3 25.1 123.7 25.1 124.2C25.1 124.7 25.5 125.1 26 125.1C26.5 125.1 26.9 124.7 26.9 124.2C26.9 123.7 26.5 123.3 26 123.3Z" fill="#CB43A2"/>
<path d="M30.1 125C30.5971 125 31 124.597 31 124.1C31 123.603 30.5971 123.2 30.1 123.2C29.603 123.2 29.2 123.603 29.2 124.1C29.2 124.597 29.603 125 30.1 125Z" fill="#CB43A2"/>
<path d="M34.1 123.3C33.6 123.3 33.2 123.7 33.2 124.2C33.2 124.7 33.6 125.1 34.1 125.1C34.6 125.1 35 124.7 35 124.2C35 123.7 34.6 123.3 34.1 123.3Z" fill="#CB43A2"/>
<path d="M38.1 125C38.5971 125 39 124.597 39 124.1C39 123.603 38.5971 123.2 38.1 123.2C37.603 123.2 37.2 123.603 37.2 124.1C37.2 124.597 37.603 125 38.1 125Z" fill="#CB43A2"/>
<path d="M10.7 128.5C10.7 128 10.3 127.6 9.79999 127.6C9.49999 127.6 9.29999 127.7 9.09999 127.9C9.19999 128.4 9.39999 128.8 9.49999 129.2C9.59999 129.2 9.69999 129.3 9.79999 129.3C10.3 129.3 10.7 128.9 10.7 128.5Z" fill="#CB43A2"/>
<path d="M13.9 127.6C13.4 127.6 13 128 13 128.5C13 129 13.4 129.4 13.9 129.4C14.4 129.4 14.8 129 14.8 128.5C14.8 128 14.4 127.6 13.9 127.6Z" fill="#CB43A2"/>
<path d="M17.9 129.4C18.3971 129.4 18.8 128.997 18.8 128.5C18.8 128.003 18.3971 127.6 17.9 127.6C17.403 127.6 17 128.003 17 128.5C17 128.997 17.403 129.4 17.9 129.4Z" fill="#CB43A2"/>
<path d="M22 129.4C22.497 129.4 22.9 128.997 22.9 128.5C22.9 128.003 22.497 127.6 22 127.6C21.5029 127.6 21.1 128.003 21.1 128.5C21.1 128.997 21.5029 129.4 22 129.4Z" fill="#CB43A2"/>
<path d="M26 127.6C25.5 127.6 25.1 128 25.1 128.5C25.1 129 25.5 129.4 26 129.4C26.5 129.4 26.9 129 26.9 128.5C26.9 128 26.5 127.6 26 127.6Z" fill="#CB43A2"/>
<path d="M30.1 129.4C30.5971 129.4 31 128.997 31 128.5C31 128.003 30.5971 127.6 30.1 127.6C29.603 127.6 29.2 128.003 29.2 128.5C29.2 128.997 29.603 129.4 30.1 129.4Z" fill="#CB43A2"/>
<path d="M34.1 127.6C33.6 127.6 33.2 128 33.2 128.5C33.2 129 33.6 129.4 34.1 129.4C34.6 129.4 35 129 35 128.5C35 128 34.6 127.6 34.1 127.6Z" fill="#CB43A2"/>
<path d="M38.1 129.4C38.5971 129.4 39 128.997 39 128.5C39 128.003 38.5971 127.6 38.1 127.6C37.603 127.6 37.2 128.003 37.2 128.5C37.2 128.997 37.603 129.4 38.1 129.4Z" fill="#CB43A2"/>
<path d="M13.9 131.9C13.4 131.9 13 132.3 13 132.8C13 133.3 13.4 133.7 13.9 133.7C14.4 133.7 14.8 133.3 14.8 132.8C14.8 132.3 14.4 131.9 13.9 131.9Z" fill="#CB43A2"/>
<path d="M17.9 133.7C18.3971 133.7 18.8 133.297 18.8 132.8C18.8 132.303 18.3971 131.9 17.9 131.9C17.403 131.9 17 132.303 17 132.8C17 133.297 17.403 133.7 17.9 133.7Z" fill="#CB43A2"/>
<path d="M22 133.7C22.497 133.7 22.9 133.297 22.9 132.8C22.9 132.303 22.497 131.9 22 131.9C21.5029 131.9 21.1 132.303 21.1 132.8C21.1 133.297 21.5029 133.7 22 133.7Z" fill="#CB43A2"/>
<path d="M26 131.9C25.5 131.9 25.1 132.3 25.1 132.8C25.1 133.3 25.5 133.7 26 133.7C26.5 133.7 26.9 133.3 26.9 132.8C26.9 132.3 26.5 131.9 26 131.9Z" fill="#CB43A2"/>
<path d="M30.1 133.7C30.5971 133.7 31 133.297 31 132.8C31 132.303 30.5971 131.9 30.1 131.9C29.603 131.9 29.2 132.303 29.2 132.8C29.2 133.297 29.603 133.7 30.1 133.7Z" fill="#CB43A2"/>
<path d="M34.1 131.9C33.6 131.9 33.2 132.3 33.2 132.8C33.2 133.3 33.6 133.7 34.1 133.7C34.6 133.7 35 133.3 35 132.8C35 132.3 34.6 131.9 34.1 131.9Z" fill="#CB43A2"/>
<path d="M38.1 133.7C38.5971 133.7 39 133.297 39 132.8C39 132.303 38.5971 131.9 38.1 131.9C37.603 131.9 37.2 132.303 37.2 132.8C37.2 133.297 37.603 133.7 38.1 133.7Z" fill="#CB43A2"/>
<path d="M14.8 137.1C14.8 136.6 14.4 136.2 13.9 136.2C13.6 136.2 13.4 136.4 13.2 136.6C13.5 137 13.8 137.5 14.1 137.9C14.5 137.8 14.8 137.5 14.8 137.1Z" fill="#CB43A2"/>
<path d="M17.9 138C18.3971 138 18.8 137.597 18.8 137.1C18.8 136.603 18.3971 136.2 17.9 136.2C17.403 136.2 17 136.603 17 137.1C17 137.597 17.403 138 17.9 138Z" fill="#CB43A2"/>
<path d="M22 138C22.497 138 22.9 137.597 22.9 137.1C22.9 136.603 22.497 136.2 22 136.2C21.5029 136.2 21.1 136.603 21.1 137.1C21.1 137.597 21.5029 138 22 138Z" fill="#CB43A2"/>
<path d="M26 136.2C25.5 136.2 25.1 136.6 25.1 137.1C25.1 137.6 25.5 138 26 138C26.5 138 26.9 137.6 26.9 137.1C26.9 136.6 26.5 136.2 26 136.2Z" fill="#CB43A2"/>
<path d="M30.1 138C30.5971 138 31 137.597 31 137.1C31 136.603 30.5971 136.2 30.1 136.2C29.603 136.2 29.2 136.603 29.2 137.1C29.2 137.597 29.603 138 30.1 138Z" fill="#CB43A2"/>
<path d="M34.1 136.2C33.6 136.2 33.2 136.6 33.2 137.1C33.2 137.6 33.6 138 34.1 138C34.6 138 35 137.6 35 137.1C35 136.6 34.6 136.2 34.1 136.2Z" fill="#CB43A2"/>
<path d="M38.1 138C38.5971 138 39 137.597 39 137.1C39 136.603 38.5971 136.2 38.1 136.2C37.603 136.2 37.2 136.603 37.2 137.1C37.2 137.597 37.603 138 38.1 138Z" fill="#CB43A2"/>
<path d="M18.8 141.4C18.8 140.9 18.4 140.5 17.9 140.5C17.5 140.5 17.1 140.8 17.1 141.2C17.4 141.5 17.8 141.8 18.1 142.1C18.5 142.1 18.8 141.8 18.8 141.4Z" fill="#CB43A2"/>
<path d="M22 142.3C22.497 142.3 22.9 141.897 22.9 141.4C22.9 140.903 22.497 140.5 22 140.5C21.5029 140.5 21.1 140.903 21.1 141.4C21.1 141.897 21.5029 142.3 22 142.3Z" fill="#CB43A2"/>
<path d="M26 140.5C25.5 140.5 25.1 140.9 25.1 141.4C25.1 141.9 25.5 142.3 26 142.3C26.5 142.3 26.9 141.9 26.9 141.4C26.9 140.9 26.5 140.5 26 140.5Z" fill="#CB43A2"/>
<path d="M30.1 142.3C30.5971 142.3 31 141.897 31 141.4C31 140.903 30.5971 140.5 30.1 140.5C29.603 140.5 29.2 140.903 29.2 141.4C29.2 141.897 29.603 142.3 30.1 142.3Z" fill="#CB43A2"/>
<path d="M34.1 140.5C33.6 140.5 33.2 140.9 33.2 141.4C33.2 141.9 33.6 142.3 34.1 142.3C34.6 142.3 35 141.9 35 141.4C35 140.9 34.6 140.5 34.1 140.5Z" fill="#CB43A2"/>
<path d="M38.1 142.3C38.5971 142.3 39 141.897 39 141.4C39 140.903 38.5971 140.5 38.1 140.5C37.603 140.5 37.2 140.903 37.2 141.4C37.2 141.897 37.603 142.3 38.1 142.3Z" fill="#CB43A2"/>
<path d="M22 144.8C21.9 144.8 21.8 144.8 21.6 144.9C22 145.2 22.4 145.4 22.8 145.7C22.8 145.2 22.5 144.8 22 144.8Z" fill="#CB43A2"/>
<path d="M26 144.8C25.5 144.8 25.1 145.2 25.1 145.7C25.1 146.2 25.5 146.6 26 146.6C26.5 146.6 26.9 146.2 26.9 145.7C26.9 145.2 26.5 144.8 26 144.8Z" fill="#CB43A2"/>
<path d="M30.1 144.8C29.6 144.8 29.2 145.2 29.2 145.7C29.2 146.2 29.6 146.6 30.1 146.6C30.6 146.6 31 146.2 31 145.7C30.9 145.2 30.5 144.8 30.1 144.8Z" fill="#CB43A2"/>
<path d="M34.1 144.8C33.6 144.8 33.2 145.2 33.2 145.7C33.2 146.2 33.6 146.6 34.1 146.6C34.6 146.6 35 146.2 35 145.7C35 145.2 34.6 144.8 34.1 144.8Z" fill="#CB43A2"/>
<path d="M38.1 144.8C37.6 144.8 37.2 145.2 37.2 145.7C37.2 146.2 37.6 146.6 38.1 146.6C38.6 146.6 39 146.2 39 145.7C39 145.2 38.6 144.8 38.1 144.8Z" fill="#CB43A2"/>
<path d="M34.1 149.2C33.8 149.2 33.6 149.3 33.4 149.5C33.9 149.6 34.4 149.6 34.9 149.7C34.8 149.4 34.5 149.2 34.1 149.2Z" fill="#CB43A2"/>
<path d="M38.1 149.2C37.7 149.2 37.4 149.5 37.3 149.9C37.6 149.9 37.8 149.9 38.1 149.9C38.4 149.9 38.7 149.9 39 149.9C38.9 149.5 38.6 149.2 38.1 149.2Z" fill="#CB43A2"/>
<path d="M42.1 123.3C41.6 123.3 41.2 123.7 41.2 124.2C41.2 124.7 41.6 125.1 42.1 125.1C42.6 125.1 43 124.7 43 124.2C43 123.7 42.6 123.3 42.1 123.3Z" fill="#CB43A2"/>
<path d="M46.2 123.3C45.7 123.3 45.3 123.7 45.3 124.2C45.3 124.7 45.7 125.1 46.2 125.1C46.7 125.1 47.1 124.7 47.1 124.2C47 123.7 46.7 123.3 46.2 123.3Z" fill="#CB43A2"/>
<path d="M50.2 125C50.6971 125 51.1 124.597 51.1 124.1C51.1 123.603 50.6971 123.2 50.2 123.2C49.7029 123.2 49.3 123.603 49.3 124.1C49.3 124.597 49.7029 125 50.2 125Z" fill="#CB43A2"/>
<path d="M54.3 123.3C53.8 123.3 53.4 123.7 53.4 124.2C53.4 124.7 53.8 125.1 54.3 125.1C54.8 125.1 55.2 124.7 55.2 124.2C55.1 123.7 54.7 123.3 54.3 123.3Z" fill="#CB43A2"/>
<path d="M58.3 123.3C57.8 123.3 57.4 123.7 57.4 124.2C57.4 124.7 57.8 125.1 58.3 125.1C58.8 125.1 59.2 124.7 59.2 124.2C59.2 123.7 58.8 123.3 58.3 123.3Z" fill="#CB43A2"/>
<path d="M62.3 123.3C61.8 123.3 61.4 123.7 61.4 124.2C61.4 124.7 61.8 125.1 62.3 125.1C62.8 125.1 63.2 124.7 63.2 124.2C63.2 123.7 62.8 123.3 62.3 123.3Z" fill="#CB43A2"/>
<path d="M66.4 123.3C65.9 123.3 65.5 123.7 65.5 124.2C65.5 124.7 65.9 125.1 66.4 125.1C66.9 125.1 67.3 124.7 67.3 124.2C67.2 123.7 66.9 123.3 66.4 123.3Z" fill="#CB43A2"/>
<path d="M42.1 127.6C41.6 127.6 41.2 128 41.2 128.5C41.2 129 41.6 129.4 42.1 129.4C42.6 129.4 43 129 43 128.5C43 128 42.6 127.6 42.1 127.6Z" fill="#CB43A2"/>
<path d="M46.2 127.6C45.7 127.6 45.3 128 45.3 128.5C45.3 129 45.7 129.4 46.2 129.4C46.7 129.4 47.1 129 47.1 128.5C47 128 46.7 127.6 46.2 127.6Z" fill="#CB43A2"/>
<path d="M50.2 129.4C50.6971 129.4 51.1 128.997 51.1 128.5C51.1 128.003 50.6971 127.6 50.2 127.6C49.7029 127.6 49.3 128.003 49.3 128.5C49.3 128.997 49.7029 129.4 50.2 129.4Z" fill="#CB43A2"/>
<path d="M54.3 127.6C53.8 127.6 53.4 128 53.4 128.5C53.4 129 53.8 129.4 54.3 129.4C54.8 129.4 55.2 129 55.2 128.5C55.1 128 54.7 127.6 54.3 127.6Z" fill="#CB43A2"/>
<path d="M58.3 127.6C57.8 127.6 57.4 128 57.4 128.5C57.4 129 57.8 129.4 58.3 129.4C58.8 129.4 59.2 129 59.2 128.5C59.2 128 58.8 127.6 58.3 127.6Z" fill="#CB43A2"/>
<path d="M62.3 127.6C61.8 127.6 61.4 128 61.4 128.5C61.4 129 61.8 129.4 62.3 129.4C62.8 129.4 63.2 129 63.2 128.5C63.2 128 62.8 127.6 62.3 127.6Z" fill="#CB43A2"/>
<path d="M66.4 127.6C65.9 127.6 65.5 128 65.5 128.5C65.5 129 65.9 129.4 66.4 129.4C66.5 129.4 66.6 129.4 66.7 129.3C66.8 128.9 67 128.4 67.1 128C66.9 127.7 66.7 127.6 66.4 127.6Z" fill="#CB43A2"/>
<path d="M42.1 131.9C41.6 131.9 41.2 132.3 41.2 132.8C41.2 133.3 41.6 133.7 42.1 133.7C42.6 133.7 43 133.3 43 132.8C43 132.3 42.6 131.9 42.1 131.9Z" fill="#CB43A2"/>
<path d="M46.2 131.9C45.7 131.9 45.3 132.3 45.3 132.8C45.3 133.3 45.7 133.7 46.2 133.7C46.7 133.7 47.1 133.3 47.1 132.8C47 132.3 46.7 131.9 46.2 131.9Z" fill="#CB43A2"/>
<path d="M50.2 133.7C50.6971 133.7 51.1 133.297 51.1 132.8C51.1 132.303 50.6971 131.9 50.2 131.9C49.7029 131.9 49.3 132.303 49.3 132.8C49.3 133.297 49.7029 133.7 50.2 133.7Z" fill="#CB43A2"/>
<path d="M54.3 131.9C53.8 131.9 53.4 132.3 53.4 132.8C53.4 133.3 53.8 133.7 54.3 133.7C54.8 133.7 55.2 133.3 55.2 132.8C55.1 132.3 54.7 131.9 54.3 131.9Z" fill="#CB43A2"/>
<path d="M58.3 131.9C57.8 131.9 57.4 132.3 57.4 132.8C57.4 133.3 57.8 133.7 58.3 133.7C58.8 133.7 59.2 133.3 59.2 132.8C59.2 132.3 58.8 131.9 58.3 131.9Z" fill="#CB43A2"/>
<path d="M62.3 131.9C61.8 131.9 61.4 132.3 61.4 132.8C61.4 133.3 61.8 133.7 62.3 133.7C62.8 133.7 63.2 133.3 63.2 132.8C63.2 132.3 62.8 131.9 62.3 131.9Z" fill="#CB43A2"/>
<path d="M42.1 136.2C41.6 136.2 41.2 136.6 41.2 137.1C41.2 137.6 41.6 138 42.1 138C42.6 138 43 137.6 43 137.1C43 136.6 42.6 136.2 42.1 136.2Z" fill="#CB43A2"/>
<path d="M46.2 136.2C45.7 136.2 45.3 136.6 45.3 137.1C45.3 137.6 45.7 138 46.2 138C46.7 138 47.1 137.6 47.1 137.1C47 136.6 46.7 136.2 46.2 136.2Z" fill="#CB43A2"/>
<path d="M50.2 138C50.6971 138 51.1 137.597 51.1 137.1C51.1 136.603 50.6971 136.2 50.2 136.2C49.7029 136.2 49.3 136.603 49.3 137.1C49.3 137.597 49.7029 138 50.2 138Z" fill="#CB43A2"/>
<path d="M54.3 136.2C53.8 136.2 53.4 136.6 53.4 137.1C53.4 137.6 53.8 138 54.3 138C54.8 138 55.2 137.6 55.2 137.1C55.1 136.6 54.7 136.2 54.3 136.2Z" fill="#CB43A2"/>
<path d="M58.3 136.2C57.8 136.2 57.4 136.6 57.4 137.1C57.4 137.6 57.8 138 58.3 138C58.8 138 59.2 137.6 59.2 137.1C59.2 136.6 58.8 136.2 58.3 136.2Z" fill="#CB43A2"/>
<path d="M62.3 136.2C61.8 136.2 61.4 136.6 61.4 137.1C61.4 137.5 61.7 137.8 62 137.9C62.3 137.5 62.6 137 62.9 136.6C62.9 136.4 62.6 136.2 62.3 136.2Z" fill="#CB43A2"/>
<path d="M42.1 140.5C41.6 140.5 41.2 140.9 41.2 141.4C41.2 141.9 41.6 142.3 42.1 142.3C42.6 142.3 43 141.9 43 141.4C43 140.9 42.6 140.5 42.1 140.5Z" fill="#CB43A2"/>
<path d="M46.2 140.5C45.7 140.5 45.3 140.9 45.3 141.4C45.3 141.9 45.7 142.3 46.2 142.3C46.7 142.3 47.1 141.9 47.1 141.4C47 140.9 46.7 140.5 46.2 140.5Z" fill="#CB43A2"/>
<path d="M50.2 142.3C50.6971 142.3 51.1 141.897 51.1 141.4C51.1 140.903 50.6971 140.5 50.2 140.5C49.7029 140.5 49.3 140.903 49.3 141.4C49.3 141.897 49.7029 142.3 50.2 142.3Z" fill="#CB43A2"/>
<path d="M54.3 140.5C53.8 140.5 53.4 140.9 53.4 141.4C53.4 141.9 53.8 142.3 54.3 142.3C54.8 142.3 55.2 141.9 55.2 141.4C55.1 140.9 54.7 140.5 54.3 140.5Z" fill="#CB43A2"/>
<path d="M58.3 140.5C57.8 140.5 57.4 140.9 57.4 141.4C57.4 141.8 57.7 142.1 58.1 142.2C58.4 141.9 58.8 141.6 59.1 141.3C59.1 140.9 58.7 140.5 58.3 140.5Z" fill="#CB43A2"/>
<path d="M42.1 144.8C41.6 144.8 41.2 145.2 41.2 145.7C41.2 146.2 41.6 146.6 42.1 146.6C42.6 146.6 43 146.2 43 145.7C43 145.2 42.6 144.8 42.1 144.8Z" fill="#CB43A2"/>
<path d="M46.2 144.8C45.7 144.8 45.3 145.2 45.3 145.7C45.3 146.2 45.7 146.6 46.2 146.6C46.7 146.6 47.1 146.2 47.1 145.7C47 145.2 46.7 144.8 46.2 144.8Z" fill="#CB43A2"/>
<path d="M50.2 144.8C49.7 144.8 49.3 145.2 49.3 145.7C49.3 146.2 49.7 146.6 50.2 146.6C50.7 146.6 51.1 146.2 51.1 145.7C51.1 145.2 50.7 144.8 50.2 144.8Z" fill="#CB43A2"/>
<path d="M53.4 145.7C53.8 145.5 54.2 145.2 54.6 144.9C54.5 144.9 54.4 144.8 54.2 144.8C53.8 144.8 53.4 145.2 53.4 145.7Z" fill="#CB43A2"/>
<path d="M42.1 149.2C41.7 149.2 41.4 149.4 41.3 149.7C41.8 149.6 42.3 149.6 42.8 149.5C42.7 149.3 42.4 149.2 42.1 149.2Z" fill="#CB43A2"/>
<path d="M150.2 13C95.9 13 51.9 57 51.9 111.2C51.9 165.5 95.9 209.4 150.1 209.4C204.4 209.4 248.3 165.4 248.3 111.2C248.4 57 204.4 13 150.2 13ZM150.2 203.2C99.4 203.2 58.2 162 58.2 111.2C58.2 60.4 99.4 19.2 150.2 19.2C201 19.2 242.2 60.4 242.2 111.2C242.2 162 201 203.2 150.2 203.2Z" fill="url(#paint0_linear)"/>
<path d="M85.9 136L125.4 175.5C126.3 175.8 127.1 176.1 128 176.4L84.9 133.3C85.2 134.3 85.5 135.1 85.9 136Z" fill="#CA42A3"/>
<path d="M82.6 124.5L137 178.9C137.7 179 138.3 179.1 139 179.3L82.3 122.6C82.3 123.1 82.4 123.8 82.6 124.5Z" fill="#CA42A3"/>
<path d="M81.4 115.1L146.3 180C146.9 180 147.4 180.1 148 180.1L81.3 113.4C81.3 114 81.4 114.5 81.4 115.1Z" fill="#CA42A3"/>
<path d="M81.4 106.9L154.5 180C155 180 155.5 179.9 156 179.9L81.5 105.4C81.5 105.9 81.5 106.4 81.4 106.9Z" fill="#CA42A3"/>
<path d="M82.5 98.2C82.4 98.7 82.3 99.1 82.2 99.6L161.8 179.2C161.9 179.2 161.9 179.2 162 179.2L162.7 178.5L82.5 98.2Z" fill="#CA42A3"/>
<path d="M166.8 174.3L84.1 91.6001C84 92.0001 83.9 92.4001 83.7 92.9001L166 175.2L166.8 174.3Z" fill="#CA42A3"/>
<path d="M170.9 170.2L86.3 85.5C86.1 85.9 86 86.3 85.8 86.7L170.1 171L170.9 170.2Z" fill="#CA42A3"/>
<path d="M175.1 166.1L88.8 79.9001C88.6 80.3001 88.4 80.6001 88.3 81.0001L174.3 167L175.1 166.1Z" fill="#CA42A3"/>
<path d="M179.2 162L91.8 74.6001C91.6 74.9001 91.4 75.3001 91.2 75.6001L178.4 162.8L179.2 162Z" fill="#CA42A3"/>
<path d="M183.3 157.9L95.2 69.8C95 70.1 94.7 70.4001 94.5 70.7001L182.5 158.7L183.3 157.9Z" fill="#CA42A3"/>
<path d="M187.4 153.8L98.9 65.3C98.6 65.6 98.4 65.9001 98.1 66.2001L186.6 154.7L187.4 153.8Z" fill="#CA42A3"/>
<path d="M191.5 149.7L102.9 61.1001C102.6 61.4001 102.3 61.6001 102.1 61.9001L190.7 150.5L191.5 149.7Z" fill="#CA42A3"/>
<path d="M195.6 145.6L107.3 57.3C107 57.5 106.7 57.8 106.4 58L194.8 146.4L195.6 145.6Z" fill="#CA42A3"/>
<path d="M199.7 141.5L112 53.9001C111.7 54.1001 111.3 54.3001 111 54.6001L198.8 142.4L199.7 141.5Z" fill="#CA42A3"/>
<path d="M203.8 137.4L117.2 50.8C116.8 51 116.5 51.2001 116.1 51.4001L202.9 138.2L203.8 137.4Z" fill="#CA42A3"/>
<path d="M207.9 133.3L122.7 48.1001C122.3 48.3001 121.9 48.4001 121.6 48.6001L207.1 134.1L207.9 133.3Z" fill="#CA42A3"/>
<path d="M212 129.2L128.6 45.8C128.2 45.9 127.8 46.1001 127.4 46.2001L211.2 130L212 129.2Z" fill="#CA42A3"/>
<path d="M216.1 125.1L135.1 44.1001C134.7 44.2001 134.2 44.3001 133.8 44.4001L215.4 126L216.1 125.1Z" fill="#CA42A3"/>
<path d="M218.6 119.4L142 42.8C141.5 42.9 141 42.9 140.5 43L218.3 120.8C218.5 120.3 218.5 119.8 218.6 119.4Z" fill="#CA42A3"/>
<path d="M219 111.6L149.7 42.3C149.2 42.3 148.6 42.3 148.1 42.3L219 113.2C219 112.7 219 112.2 219 111.6Z" fill="#CA42A3"/>
<path d="M218.6 102.9L158.5 42.8001C157.9 42.7001 157.3 42.7001 156.7 42.6001L218.8 104.7C218.7 104.1 218.6 103.5 218.6 102.9Z" fill="#CA42A3"/>
<path d="M216.5 92.7L168.7 44.9C168 44.7 167.2 44.5 166.5 44.3L217.1 94.9001C216.9 94.2001 216.7 93.4 216.5 92.7Z" fill="#CA42A3"/>
<path d="M211.1 79L182.4 50.2999C181.3 49.6999 180.2 49.2 179.1 48.7L212.7 82.3C212.2 81.2 211.6 80.1 211.1 79Z" fill="#CA42A3"/>
<path d="M124.3 162.7C140.095 162.7 152.9 149.895 152.9 134.1C152.9 118.305 140.095 105.5 124.3 105.5C108.505 105.5 95.7 118.305 95.7 134.1C95.7 149.895 108.505 162.7 124.3 162.7Z" fill="url(#paint1_radial)"/>
<path d="M115.8 149.5C129.276 149.5 140.2 138.576 140.2 125.1C140.2 111.624 129.276 100.7 115.8 100.7C102.324 100.7 91.4 111.624 91.4 125.1C91.4 138.576 102.324 149.5 115.8 149.5Z" fill="url(#paint2_linear)"/>
<g filter="url(#filter0_d)">
<path d="M153.984 53.752C148.503 42.6685 135.986 37.6681 126.161 42.505C116.3 47.3793 112.748 60.3012 118.229 71.3848C123.71 82.4683 136.227 87.4687 146.052 82.6318C155.913 77.7574 159.464 64.7618 153.984 53.752ZM148.103 56.6097C151.974 64.4008 149.749 73.4678 143.138 76.7057C136.491 79.9809 127.943 76.2819 124.108 68.4534C120.201 60.6997 122.464 51.669 129.073 48.3574C135.684 45.1196 144.233 48.8186 148.103 56.6097Z" fill="#FCCF2E"/>
<path d="M152.78 73.9322C153.172 73.2256 152.932 72.2711 152.151 71.8779C151.443 71.4837 150.49 71.7199 150.099 72.5001C148.674 75.1028 146.539 77.1637 143.948 78.4947C142.706 79.1041 141.424 79.5298 140.065 79.7355C139.219 79.8595 138.681 80.642 138.808 81.4878C138.934 82.3336 139.719 82.8741 140.564 82.7502C142.217 82.466 143.792 81.962 145.289 81.238C148.465 79.6029 151.034 77.0928 152.78 73.9322ZM121.269 54.3411C122.641 50.8915 125.059 48.2363 128.236 46.6749C131.231 45.227 134.651 44.8413 138.057 45.6721C138.872 45.8804 139.672 45.3517 139.878 44.5376C140.084 43.7234 139.553 42.9209 138.738 42.7126C134.628 41.7085 130.509 42.1422 126.858 43.9691C123.098 45.8346 120.064 49.1261 118.446 53.2062C118.129 53.9852 118.514 54.8638 119.294 55.1832C119.703 55.3611 120.181 55.3167 120.509 55.1272C120.875 54.974 121.128 54.712 121.269 54.3411Z" fill="#FCD549"/>
<path d="M147.378 46.6137C142.776 48.8983 140.89 54.4579 143.19 59.0667C145.489 63.6755 151.054 65.5783 155.656 63.2937C160.222 61.0465 162.07 55.4506 159.845 50.8406C157.546 46.2319 151.944 44.3665 147.378 46.6137Z" fill="#FCCF2E"/>
<path d="M118.998 74.3838L24.3501 121.133C24.1677 121.247 23.9812 121.139 23.867 120.956L21.4893 116.199C21.3751 116.016 21.4823 115.83 21.6647 115.717L116.35 69.0037L118.998 74.3838Z" fill="#FCCF2E"/>
<path d="M24.5512 120.507L20.2397 122.64C18.9974 123.25 17.5129 122.757 16.8993 121.513C16.2857 120.269 16.774 118.787 18.0164 118.177L22.3278 116.044C23.5702 115.434 25.0547 115.927 25.6683 117.171C26.2819 118.415 25.7936 119.898 24.5512 120.507Z" fill="#FCCF2E"/>
<path d="M23.7881 120.918L23.2296 121.195L21.009 116.709L21.5675 116.432L23.7881 120.918Z" fill="#EDC01F"/>
<path d="M21.4991 119.232C22.5728 121.427 21.6633 124.022 19.5452 125.088C17.3535 126.155 14.7555 125.238 13.6832 123.116C12.6095 120.921 13.5189 118.326 15.637 117.26C17.7913 116.157 20.4254 117.037 21.4991 119.232Z" fill="#FCCF2E"/>
<path d="M21.9394 119C22.3604 119.841 22.4884 120.759 22.3566 121.572L21.9191 121.8C22.0495 120.914 21.9229 120.068 21.5019 119.228C21.0809 118.387 20.4432 117.771 19.6986 117.341L20.1361 117.113C20.8807 117.543 21.5184 118.159 21.9394 119Z" fill="#EDC01F"/>
<path d="M14.0732 122.189C14.6618 124.06 17.3157 124.018 17.9066 122.129C18.3237 120.795 18.5906 119.316 18.8381 118.759C19.0495 118.24 18.7434 117.655 18.2259 117.589C17.2634 117.383 16.2355 117.62 15.3259 118.261C14.1632 119.164 13.6766 120.72 14.0732 122.189Z" fill="#FCD549"/>
<path d="M55.4954 101.784L24.2739 117.178C23.8716 117.369 23.3524 117.229 23.1227 116.79C22.9305 116.388 23.0683 115.869 23.5068 115.641L54.7283 100.247C55.1306 100.056 55.6499 100.196 55.8796 100.635C56.1093 101.074 55.8977 101.593 55.4954 101.784Z" fill="#FCD549"/>
<path d="M111.179 74.2654L79.9579 89.6592C79.5556 89.8499 79.0363 89.7106 78.8066 89.2716C78.6145 88.8689 78.7523 88.3504 79.1908 88.1221L110.414 72.8021C110.816 72.6113 111.335 72.7507 111.565 73.1897C111.757 73.5924 111.582 74.0746 111.179 74.2654Z" fill="#FCD549"/>
<path d="M64.7908 105.818C63.6594 106.389 62.2875 105.931 61.7134 104.798L57.3472 96.0215C56.7731 94.888 57.2262 93.5172 58.3577 92.9465C59.4891 92.3758 60.861 92.8332 61.4351 93.9667L65.8013 102.743C66.3767 103.95 65.8861 105.285 64.7908 105.818Z" fill="#FCCF2E"/>
<path d="M61.9168 101.881C61.589 102.071 61.1805 101.893 61.0277 101.6L58.1942 95.8982C58.0039 95.5697 58.1802 95.1617 58.4719 95.0098C58.7997 94.8205 59.2082 94.9983 59.361 95.2906L62.1945 100.993C62.3848 101.321 62.2821 101.728 61.9168 101.881Z" fill="#FCD549"/>
<path d="M62.3389 95.7115L63.1302 95.3196L65.79 100.693L64.9987 101.085L62.3389 95.7115Z" fill="#EDC01F"/>
<path d="M77.5511 99.5198C76.4197 100.091 75.0478 99.6331 74.4737 98.4997L70.1436 89.686C69.5695 88.5525 70.0226 87.1817 71.154 86.611C72.2855 86.0403 73.6574 86.4978 74.2315 87.6312L78.5977 96.4074C79.1732 97.6146 78.6826 98.9491 77.5511 99.5198Z" fill="#FCCF2E"/>
<path d="M74.5671 95.6222C74.2392 95.8115 73.8308 95.6338 73.6779 95.3415L70.8444 89.6394C70.6541 89.3109 70.8304 88.9029 71.1221 88.751C71.45 88.5617 71.8584 88.7395 72.0113 89.0318L74.8448 94.7338C75.0351 95.0623 74.9324 95.4691 74.5671 95.6222Z" fill="#FCD549"/>
<path d="M75.092 89.4048L75.8833 89.0129L78.5431 94.3864L77.7518 94.7783L75.092 89.4048Z" fill="#EDC01F"/>
<path d="M34.6304 132.351C34.3749 132.466 34.1151 132.359 33.9997 132.103L33.0419 130.166C32.9265 129.91 33.032 129.65 33.2875 129.536C33.543 129.422 33.8027 129.528 33.9181 129.784L34.8759 131.721C34.9538 131.941 34.8123 132.238 34.6304 132.351Z" fill="#FCD549"/>
<path d="M55.1644 110.486L32.8396 121.522L30.6343 117.074L52.959 106.038L55.1644 110.486Z" fill="#FCCF2E"/>
<path d="M60.4652 117.037L57.4362 110.927L58.5686 110.356C58.6423 110.355 58.6771 110.244 58.6382 110.134L57.756 108.341C57.7546 108.267 57.6433 108.232 57.5334 108.271L28.8143 122.441C28.7406 122.442 28.7058 122.553 28.7448 122.663L29.6269 124.456C29.6283 124.53 29.7396 124.565 29.8495 124.526L30.982 123.955L34.011 130.065L33.1707 130.484C32.9509 130.561 32.8827 130.857 32.9606 131.077L35.454 136.163C35.5695 136.42 35.8658 136.489 36.1218 136.374L45.731 131.613C45.987 131.499 46.0552 131.203 45.9397 130.946L42.6811 124.397C42.6031 124.177 42.6351 123.919 42.8911 123.804L51.66 119.462C51.8798 119.385 52.1386 119.418 52.2541 119.674L55.5127 126.223C55.6282 126.479 55.9245 126.548 56.1805 126.434L64.1453 122.473C64.4013 122.358 64.4695 122.062 64.354 121.806L61.8606 116.72C61.7827 116.5 61.4863 116.431 61.2665 116.508L60.4652 117.037Z" fill="#FCCF2E"/>
<path d="M58.4708 112.919L32.0287 125.993L31.0535 124.026L57.4955 110.952L58.4708 112.919Z" fill="#EDC01F"/>
<path d="M44.0099 126.854L33.4826 132.036L33.0219 131.084C32.9439 130.864 32.9759 130.605 33.232 130.491L43.3571 125.5L44.0099 126.854Z" fill="#EDC01F"/>
<path d="M62.4363 117.695L53.5911 122.039L52.9383 120.684L61.3813 116.532C61.6011 116.454 61.86 116.487 61.9755 116.744L62.4363 117.695Z" fill="#EDC01F"/>
<path d="M54.8102 109.732L32.4818 120.771L31.1119 118.008L53.4403 106.969L54.8102 109.732Z" fill="#EDC01F"/>
<path d="M35.2747 128.984C34.9831 129.136 34.6498 129.031 34.4969 128.739L33.3474 126.4C33.1945 126.107 33.2985 125.774 33.59 125.623C33.8816 125.471 34.2149 125.576 34.3678 125.869L35.5173 128.207C35.6702 128.5 35.5662 128.833 35.2747 128.984Z" fill="#FCD549"/>
<path d="M53.8473 119.75C53.5557 119.901 53.2224 119.796 53.0695 119.504L51.92 117.165C51.7671 116.873 51.8711 116.54 52.1626 116.388C52.4542 116.236 52.7875 116.342 52.9404 116.634L54.1274 119.009C54.2428 119.265 54.1027 119.635 53.8473 119.75Z" fill="#FCD549"/>
<path d="M56.4865 125.42C56.195 125.572 55.8617 125.466 55.7088 125.174L54.5593 122.835C54.4064 122.543 54.5103 122.21 54.8019 122.058C55.0934 121.907 55.4267 122.012 55.5796 122.304L56.7292 124.643C56.9181 124.898 56.7781 125.268 56.4865 125.42Z" fill="#FCD549"/>
<path d="M122.83 75.8638L120.091 77.1973C119.251 77.616 118.212 77.2638 117.79 76.4226L113.958 68.6681C113.536 67.8269 113.885 66.7893 114.725 66.3705L117.465 65.0371C120.46 63.589 124.095 64.7849 125.552 67.7847C127.046 70.747 125.861 74.3783 122.83 75.8638Z" fill="#FCCF2E"/>
<path d="M113.007 70.619L114.544 69.8582L117.206 75.2326L115.669 75.9934L113.007 70.619Z" fill="#EDC01F"/>
<path d="M115.147 67.0643C115.111 67.1017 115.149 67.138 115.147 67.0643C115.332 67.0982 115.053 67.9136 115.057 68.1347C115.139 68.5757 115.37 69.0881 115.598 69.4531C116.282 70.5482 117.474 71.1928 118.73 71.3941C120.986 71.764 123.184 71.0657 125.404 71.5467C125.404 71.5467 125.404 71.5467 125.44 71.5093C125.712 70.2517 125.575 68.89 124.852 67.685C123.441 65.1639 120.18 64.257 117.551 65.5518L115.544 66.5788C115.474 66.8011 115.33 66.9508 115.147 67.0643Z" fill="#FCD549"/>
<path d="M122.42 63.3001C122.541 63.8511 122.626 64.4396 122.783 64.9532C121.146 64.1679 119.229 64.1243 117.513 64.999L116.235 65.6457C116.114 65.0947 116.03 64.5799 115.947 64.0652L116.677 63.6851C118.503 62.7718 120.602 62.702 122.42 63.3001Z" fill="#EDC01F"/>
<path d="M127.193 72.9881C126.564 74.842 125.265 76.4113 123.364 77.3262L122.633 77.7064C122.258 77.3435 121.88 76.9069 121.541 76.5066L122.82 75.8596C124.319 75.1353 125.364 73.8282 125.89 72.3816C125.959 72.1592 126.029 71.9369 126.061 71.6782C126.402 72.1523 126.779 72.5889 127.193 72.9881Z" fill="#EDC01F"/>
<path d="M147.378 46.6141C142.776 48.8987 140.89 54.4583 143.189 59.067C145.489 63.6758 151.054 65.5786 155.656 63.294C160.222 61.0468 162.07 55.4509 159.845 50.841C157.546 46.2323 151.944 44.3669 147.378 46.6141Z" fill="#FCCF2E"/>
<path d="M148.309 46.2009C147.98 46.3167 147.687 46.4688 147.358 46.5846C145.567 47.4607 144.192 48.8835 143.301 50.4831C142.663 49.94 141.991 49.508 141.283 49.1135C142.352 47.1793 144.018 45.5307 146.137 44.465C146.886 45.0433 147.597 45.5852 148.309 46.2009Z" fill="#EDC01F"/>
<path d="M156.475 62.8003C156.53 63.7211 156.584 64.6418 156.491 65.5649C154.335 66.5941 152.056 66.9248 149.837 66.5909C149.933 65.8153 149.954 64.967 149.938 64.1563C151.751 64.4596 153.737 64.2073 155.527 63.3313C155.929 63.1407 156.221 62.9886 156.475 62.8003Z" fill="#EDC01F"/>
<path d="M148.799 47.4767C145.576 48.6336 143.678 51.5761 143.551 54.6381C144.161 55.6607 145.172 56.4927 146.134 56.6987C148.578 57.2499 151.14 56.2509 153.617 56.6173C153.802 56.6513 153.987 56.6852 154.172 56.7191C157.465 57.3676 160.091 53.8975 158.414 50.9746C158.376 50.9383 158.339 50.9021 158.337 50.8284C156.359 47.6153 152.313 46.1677 148.799 47.4767Z" fill="#FCD549"/>
</g>
<path d="M16.4607 109.208C18.0824 111.137 17.8419 114.016 15.9185 115.632C17.8419 114.016 20.7221 114.266 22.3438 116.194C20.7221 114.266 20.9626 111.386 22.886 109.771C20.9626 111.386 18.0824 111.137 16.4607 109.208Z" fill="#DC4D9E"/>
<path d="M61.4237 108.377C63.0454 110.305 62.8048 113.185 60.8815 114.8C62.8048 113.185 65.6851 113.434 67.3068 115.363C65.6851 113.434 65.9256 110.555 67.8489 108.939C65.9256 110.555 63.0454 110.305 61.4237 108.377Z" fill="#DC4D9E"/>
<path d="M19.2253 117.679C20.0916 118.661 19.9348 120.1 18.9562 120.963C19.9348 120.1 21.3751 120.262 22.2414 121.244C21.3751 120.262 21.5319 118.822 22.5105 117.959C21.5681 118.785 20.0916 118.661 19.2253 117.679Z" fill="#DC4D9E"/>
<path d="M153.671 67.2648C155.293 69.1931 155.052 72.0724 153.129 73.688C155.052 72.0724 157.933 72.3218 159.554 74.2501C157.933 72.3218 158.173 69.4425 160.097 67.8269C158.136 69.4062 155.329 69.1556 153.671 67.2648Z" fill="#DC4D9E"/>
<path d="M131.983 37.9535C132.85 38.935 132.693 40.3747 131.714 41.2376C132.693 40.3747 134.133 40.5365 134.999 41.518C134.133 40.5365 134.29 39.0967 135.268 38.2338C134.29 39.0967 132.814 38.9724 131.983 37.9535Z" fill="#DC4D9E"/>
<path d="M124.534 79.3337C125.175 80.0976 125.084 81.1678 124.323 81.8063C125.084 81.1678 126.155 81.2616 126.796 82.0255C126.155 81.2616 126.245 80.1913 127.007 79.5528C126.282 80.1539 125.175 80.0976 124.534 79.3337Z" fill="#DC4D9E"/>
<path d="M102.414 64.0378C103.055 64.8018 102.965 65.8721 102.203 66.5106C102.965 65.8721 104.036 65.9658 104.677 66.7298C104.036 65.9658 104.126 64.8955 104.888 64.257C104.126 64.8955 103.018 64.7655 102.414 64.0378Z" fill="#DC4D9E"/>
<defs>
<filter id="filter0_d" x="9.23045" y="40.6611" width="155.556" height="103.766" filterUnits="userSpaceOnUse" color-interpolation-filters="sRGB">
<feFlood flood-opacity="0" result="BackgroundImageFix"/>
<feColorMatrix in="SourceAlpha" type="matrix" values="0 0 0 0 0 0 0 0 0 0 0 0 0 0 0 0 0 0 127 0"/>
<feOffset dy="4"/>
<feGaussianBlur stdDeviation="2"/>
<feColorMatrix type="matrix" values="0 0 0 0 0 0 0 0 0 0 0 0 0 0 0 0 0 0 0.25 0"/>
<feBlend mode="normal" in2="BackgroundImageFix" result="effect1_dropShadow"/>
<feBlend mode="normal" in="SourceGraphic" in2="effect1_dropShadow" result="shape"/>
</filter>
<linearGradient id="paint0_linear" x1="29.2236" y1="232.179" x2="220.675" y2="40.7275" gradientUnits="userSpaceOnUse">
<stop stop-color="#ED1E79"/>
<stop offset="1" stop-color="#FFDA00"/>
</linearGradient>
<radialGradient id="paint1_radial" cx="0" cy="0" r="1" gradientUnits="userSpaceOnUse" gradientTransform="translate(124.267 134.076) scale(28.5664)">
<stop stop-color="#291E79"/>
<stop offset="0.9995" stop-color="white"/>
</radialGradient>
<linearGradient id="paint2_linear" x1="115.829" y1="149.492" x2="115.829" y2="100.627" gradientUnits="userSpaceOnUse">
<stop stop-color="#ED1E79"/>
<stop offset="1" stop-color="#6B00AA"/>
</linearGradient>
</defs>
</svg>
