<svg width="154" height="136" viewBox="0 0 154 136" fill="none" xmlns="http://www.w3.org/2000/svg">
<g style="mix-blend-mode:soft-light">
<path d="M67.5803 127.124C34.6121 127.124 7.94525 100.385 7.94525 67.5317C7.94525 34.6784 34.6121 7.93954 67.5803 7.93954C100.549 7.93954 127.215 34.5872 127.215 67.5317C127.215 100.476 100.457 127.124 67.5803 127.124ZM67.5803 0C30.2285 0 0 30.2067 0 67.5317C0 104.765 30.2285 135.063 67.5803 135.063C104.841 135.063 135.161 104.857 135.161 67.5317C135.069 30.2067 104.841 0 67.5803 0Z" fill="url(#paint0_linear)"/>
<path d="M67.5804 113.982C41.9181 113.982 21.0048 93.1754 21.0048 67.4404C21.0048 41.7966 41.8268 20.8983 67.5804 20.8983C93.334 20.8983 114.156 41.7053 114.156 67.4404C114.065 93.1754 93.2426 113.982 67.5804 113.982ZM67.5804 13.415C37.7172 13.415 13.4248 37.5987 13.4248 67.5316C13.4248 97.3734 37.6259 121.648 67.5804 121.648C97.5349 121.648 121.736 97.4646 121.736 67.5316C121.645 37.5987 97.4436 13.415 67.5804 13.415Z" fill="url(#paint1_linear)"/>
<path d="M67.5803 100.933C49.1327 100.933 34.1555 85.9662 34.1555 67.5318C34.1555 49.0975 49.1327 34.131 67.5803 34.131C86.0279 34.131 101.005 49.0975 101.005 67.5318C101.005 85.9662 86.0279 100.933 67.5803 100.933ZM67.5803 26.8303C45.1144 26.8303 26.8495 45.0821 26.8495 67.5318C26.8495 89.9816 45.1144 108.233 67.5803 108.233C90.0462 108.233 108.311 89.9816 108.311 67.5318C108.311 45.0821 90.0462 26.8303 67.5803 26.8303Z" fill="url(#paint2_linear)"/>
<path d="M67.5803 87.7911C56.3473 87.7911 47.2149 78.6652 47.2149 67.4403C47.2149 56.2154 56.3473 47.0895 67.5803 47.0895C78.8132 47.0895 87.9457 56.2154 87.9457 67.4403C87.8544 78.7564 78.8132 87.7911 67.5803 87.7911ZM67.5803 40.2451C52.5117 40.2451 40.2742 52.4738 40.2742 67.5316C40.2742 82.5893 52.5117 94.818 67.5803 94.818C82.6489 94.818 94.8864 82.5893 94.8864 67.5316C94.8864 52.4738 82.6489 40.2451 67.5803 40.2451Z" fill="url(#paint3_linear)"/>
<path d="M67.5803 73.9198C64.0186 73.9198 61.0962 70.9995 61.0962 67.4404C61.0962 63.8813 64.0186 60.961 67.5803 60.961C71.1419 60.961 74.0643 63.8813 74.0643 67.4404C73.973 71.0907 71.1419 73.9198 67.5803 73.9198ZM67.5803 54.7554C60.5483 54.7554 54.7948 60.5047 54.7948 67.5316C54.7948 74.5586 60.5483 80.2166 67.5803 80.2166C74.6123 80.2166 80.2744 74.5586 80.2744 67.5316C80.2744 60.5047 74.5209 54.7554 67.5803 54.7554Z" fill="url(#paint4_linear)"/>
</g>
<path d="M129 114C142.807 114 154 102.807 154 89C154 75.1929 142.807 64 129 64C115.193 64 104 75.1929 104 89C104 102.807 115.193 114 129 114Z" fill="url(#paint5_radial)"/>
<path d="M124 105C137.807 105 149 93.8071 149 80C149 66.1929 137.807 55 124 55C110.193 55 99 66.1929 99 80C99 93.8071 110.193 105 124 105Z" fill="url(#paint6_linear)"/>
<path d="M51.8183 54.715L14.2786 34.2578L14.3305 64.2962C14.3305 70.3038 20.7169 75.4829 31.0494 81.128C41.3819 86.7731 63.8123 86.7731 74.1448 81.128C84.4773 75.4829 89.4099 69.2162 89.2541 64.2962L89.306 34.2578L51.8183 54.715Z" fill="#07ADD1"/>
<path opacity="0.4" d="M14.2786 35.7594L14.3305 59.1686C19.5746 63.0011 44.2376 78.1757 52.3375 78.2275C60.645 78.2793 85.0484 63.519 89.2541 59.7383L89.306 36.8988L51.7663 33.1699L14.2786 35.7594Z" fill="#076D8A"/>
<path d="M51.8183 11.9878L11.319 33.8433L0 35.9149V39.9545L51.8183 68.1285L104 39.9545V35.9149L92.6291 33.8433L51.8183 11.9878Z" fill="#07ABD0"/>
<path d="M0 35.915L51.8183 64.1407L104 35.915L51.8183 8L0 35.915Z" fill="#F2F2F2"/>
<path d="M23.1054 64.2442L24.9746 63.8817V49.5876L23.0535 48.5518L23.1054 64.2442Z" fill="#FBB526"/>
<path d="M23.0535 48.5519L24.9746 49.5877L53.6356 34.1024L51.8702 32.7559L23.0535 48.5519Z" fill="#FBB526"/>
<path d="M52.026 31.8235C49.2222 31.8235 46.9376 32.9111 46.9376 34.2576C46.9376 35.6042 49.2222 36.6918 52.026 36.6918C54.8298 36.6918 57.1144 35.6042 57.1144 34.2576C57.1144 32.9111 54.8298 31.8235 52.026 31.8235Z" fill="#0793B5"/>
<path d="M57.1143 32.6521H46.8856V34.413H57.1143V32.6521Z" fill="#0793B5"/>
<path d="M52.026 30.3215C49.2222 30.3215 46.9376 31.4091 46.9376 32.7557C46.9376 34.1022 49.2222 35.1898 52.026 35.1898C54.8298 35.1898 57.1144 34.1022 57.1144 32.7557C57.1144 31.4091 54.8298 30.3215 52.026 30.3215Z" fill="#07ADD1"/>
<path d="M26.2726 69.7858C27.2072 69.1125 27.7783 67.9731 27.7783 66.7302C27.7783 64.6585 26.0649 62.9495 23.988 62.9495C21.9111 62.9495 20.1977 64.6585 20.1977 66.7302C20.1977 67.9731 20.8208 69.0607 21.7554 69.7858C19.1074 70.718 17.2382 73.2557 17.2382 76.2596C17.2382 76.2596 17.2901 84.1317 17.2901 85.53C17.342 90.2947 30.9975 89.984 30.9456 85.4264C30.9456 81.4904 30.8937 76.156 30.8937 76.156C30.8937 73.2557 28.9726 70.718 26.2726 69.7858Z" fill="#F4A721"/>
<path d="M27.7784 66.7821C27.7784 64.9694 26.4803 63.4157 24.715 63.105C24.7669 63.1568 24.7669 63.1568 24.8707 63.2086C25.8053 63.6747 27.1553 65.6427 25.9092 67.7143C24.663 69.7859 21.392 69.6306 20.7689 68.7501C21.0285 69.1644 21.392 69.5788 21.8073 69.8895C21.34 70.0449 20.9247 70.252 20.5093 70.511C21.34 70.1485 22.3266 71.0807 24.7669 70.9771C26.9995 70.8735 27.8303 70.6146 28.5572 71.0807C27.8822 70.511 27.1553 70.0967 26.3246 69.7859C27.2072 69.1127 27.7784 68.0251 27.7784 66.7821Z" fill="#DD7C12"/>
<defs>
<linearGradient id="paint0_linear" x1="67.5803" y1="0" x2="67.5803" y2="135.063" gradientUnits="userSpaceOnUse">
<stop stop-color="white"/>
<stop offset="1" stop-color="white" stop-opacity="0"/>
</linearGradient>
<linearGradient id="paint1_linear" x1="67.5804" y1="13.415" x2="67.5804" y2="121.648" gradientUnits="userSpaceOnUse">
<stop stop-color="white"/>
<stop offset="1" stop-color="white" stop-opacity="0"/>
</linearGradient>
<linearGradient id="paint2_linear" x1="67.5803" y1="26.8303" x2="67.5803" y2="108.233" gradientUnits="userSpaceOnUse">
<stop stop-color="white"/>
<stop offset="1" stop-color="white" stop-opacity="0"/>
</linearGradient>
<linearGradient id="paint3_linear" x1="67.5803" y1="40.2451" x2="67.5803" y2="94.818" gradientUnits="userSpaceOnUse">
<stop stop-color="white"/>
<stop offset="1" stop-color="white" stop-opacity="0"/>
</linearGradient>
<linearGradient id="paint4_linear" x1="67.5346" y1="54.7554" x2="67.5346" y2="80.2166" gradientUnits="userSpaceOnUse">
<stop stop-color="white"/>
<stop offset="1" stop-color="white" stop-opacity="0"/>
</linearGradient>
<radialGradient id="paint5_radial" cx="0" cy="0" r="1" gradientUnits="userSpaceOnUse" gradientTransform="translate(128.971 88.9766) scale(25.003)">
<stop stop-color="#291E79"/>
<stop offset="0.9995" stop-color="white"/>
</radialGradient>
<linearGradient id="paint6_linear" x1="93.4805" y1="110.538" x2="150.717" y2="53.3012" gradientUnits="userSpaceOnUse">
<stop stop-color="#ED1E79"/>
<stop offset="1" stop-color="#FFDA00"/>
</linearGradient>
</defs>
</svg>
