<svg width="29" height="29" viewBox="0 0 29 29" fill="none" xmlns="http://www.w3.org/2000/svg">
<path fill-rule="evenodd" clip-rule="evenodd" d="M14.5 29C22.5081 29 29 22.5081 29 14.5C29 6.49187 22.5081 0 14.5 0C6.49187 0 0 6.49187 0 14.5C0 22.5081 6.49187 29 14.5 29ZM7.92847 21.0715C8.52296 21.666 9.32926 22 10.17 22H18.83C19.6707 22 20.477 21.666 21.0715 21.0715C21.666 20.477 22 19.6707 22 18.83V10.17C22 9.32926 21.666 8.52296 21.0715 7.92847C20.477 7.33398 19.6707 7 18.83 7H10.17C9.32926 7 8.52296 7.33398 7.92847 7.92847C7.33398 8.52296 7 9.32926 7 10.17V18.83C7 19.6707 7.33398 20.477 7.92847 21.0715ZM8.63558 8.63558C9.04253 8.22862 9.59448 8 10.17 8H18.83C19.4055 8 19.9575 8.22862 20.3644 8.63558C20.7714 9.04253 21 9.59448 21 10.17V18.83C21 19.4055 20.7714 19.9575 20.3644 20.3644C19.9575 20.7714 19.4055 21 18.83 21H10.17C9.59448 21 9.04253 20.7714 8.63558 20.3644C8.22862 19.9575 8 19.4055 8 18.83V10.17C8 9.59448 8.22862 9.04253 8.63558 8.63558ZM14.5002 18.2651C13.7555 18.2651 13.0276 18.0443 12.4084 17.6306C11.7893 17.2169 11.3067 16.6289 11.0218 15.9409C10.7368 15.253 10.6622 14.4959 10.8075 13.7656C10.9528 13.0353 11.3114 12.3644 11.8379 11.8379C12.3644 11.3113 13.0353 10.9527 13.7656 10.8075C14.496 10.6622 15.253 10.7368 15.941 11.0217C16.6289 11.3067 17.2169 11.7893 17.6306 12.4084C18.0443 13.0276 18.2652 13.7555 18.2652 14.5001C18.2638 15.4983 17.8667 16.4551 17.161 17.1609C16.4552 17.8667 15.4983 18.2638 14.5002 18.2651ZM14.5002 11.7301C13.9535 11.7301 13.4191 11.8922 12.9645 12.1958C12.5099 12.4994 12.1555 12.9309 11.9461 13.4359C11.7367 13.9408 11.6816 14.4965 11.7879 15.0327C11.8942 15.5689 12.1571 16.0616 12.5432 16.4485C12.9294 16.8354 13.4216 17.0991 13.9577 17.2064C14.4937 17.3136 15.0495 17.2596 15.5548 17.0511C16.0601 16.8426 16.4923 16.489 16.7967 16.0349C17.1012 15.5809 17.2642 15.0468 17.2652 14.5001C17.2638 13.7672 16.9721 13.0647 16.4538 12.5464C15.9356 12.0282 15.2331 11.7364 14.5002 11.7351V11.7301ZM18.0202 11.2375C18.2305 11.377 18.4775 11.4509 18.7299 11.4499C19.0668 11.4473 19.389 11.312 19.6268 11.0733C19.8645 10.8346 19.9986 10.5118 19.9999 10.1749C19.9999 9.92255 19.925 9.67585 19.7847 9.46607C19.6443 9.25629 19.4449 9.09287 19.2117 8.99652C18.9784 8.90017 18.7218 8.87521 18.4743 8.92482C18.2268 8.97442 17.9997 9.09635 17.8216 9.27516C17.6435 9.45397 17.5224 9.68162 17.4738 9.92928C17.4252 10.1769 17.4511 10.4334 17.5484 10.6663C17.6457 10.8992 17.8099 11.098 18.0202 11.2375ZM18.2985 9.52278C18.4265 9.43844 18.5766 9.39395 18.7299 9.39494C18.935 9.39757 19.1309 9.48091 19.275 9.6269C19.4191 9.7729 19.4999 9.96979 19.4999 10.1749C19.4989 10.3282 19.4525 10.4778 19.3665 10.6046C19.2805 10.7315 19.1588 10.8301 19.0169 10.8878C18.8749 10.9456 18.719 10.9599 18.5688 10.929C18.4187 10.8982 18.2811 10.8235 18.1734 10.7144C18.0657 10.6053 17.9928 10.4667 17.9638 10.3162C17.9349 10.1657 17.9513 10.01 18.0108 9.86874C18.0704 9.72751 18.1705 9.60711 18.2985 9.52278Z" fill="#7249A0"/>
</svg>
