<svg width="204" height="121" viewBox="0 0 204 121" fill="none" xmlns="http://www.w3.org/2000/svg">
<g style="mix-blend-mode:soft-light">
<path d="M48.0819 0.430176C47.0497 0.51619 46.1036 0.688218 45.0714 0.860246C45.4155 1.2043 45.8455 1.37633 46.3616 1.37633C47.1357 1.46234 47.8239 1.03227 48.0819 0.430176Z" fill="white"/>
<path d="M55.3931 1.46224C56.2532 1.46224 57.0274 0.86014 57.1994 0C56.5973 0 55.9952 0 55.3931 0C54.791 0 54.1889 0 53.5868 0C53.7588 0.86014 54.4469 1.46224 55.3931 1.46224Z" fill="white"/>
<path d="M64.2524 1.46227C64.7685 1.46227 65.1985 1.29024 65.5426 0.946183C64.5964 0.774155 63.5643 0.602127 62.5321 0.516113C62.9622 1.0322 63.5643 1.46227 64.2524 1.46227Z" fill="white"/>
<path d="M28.6427 7.13916C27.6105 7.13916 26.7504 7.9993 26.7504 9.03147C26.7504 10.0636 27.6105 10.9238 28.6427 10.9238C29.6748 10.9238 30.535 10.0636 30.535 9.03147C30.535 7.9993 29.6748 7.13916 28.6427 7.13916Z" fill="white"/>
<path d="M37.5022 7.13916C36.47 7.13916 35.6099 7.9993 35.6099 9.03147C35.6099 10.0636 36.47 10.9238 37.5022 10.9238C38.5343 10.9238 39.3945 10.0636 39.3945 9.03147C39.3945 7.9993 38.6204 7.13916 37.5022 7.13916Z" fill="white"/>
<path d="M46.4476 7.13916C45.4154 7.13916 44.5553 7.9993 44.5553 9.03147C44.5553 10.0636 45.4154 10.9238 46.4476 10.9238C47.4798 10.9238 48.3399 10.0636 48.3399 9.03147C48.3399 7.9993 47.4798 7.13916 46.4476 7.13916Z" fill="white"/>
<path d="M55.3929 7.13916C54.3608 7.13916 53.5006 7.9993 53.5006 9.03147C53.5006 10.0636 54.3608 10.9238 55.3929 10.9238C56.4251 10.9238 57.2852 10.0636 57.2852 9.03147C57.2852 7.9993 56.4251 7.13916 55.3929 7.13916Z" fill="white"/>
<path d="M64.2524 7.13916C63.2202 7.13916 62.3601 7.9993 62.3601 9.03147C62.3601 10.0636 63.2202 10.9238 64.2524 10.9238C65.2846 10.9238 66.1447 10.0636 66.1447 9.03147C66.1447 7.9993 65.2846 7.13916 64.2524 7.13916Z" fill="white"/>
<path d="M73.198 7.13916C72.1658 7.13916 71.3057 7.9993 71.3057 9.03147C71.3057 10.0636 72.1658 10.9238 73.198 10.9238C74.2301 10.9238 75.0903 10.0636 75.0903 9.03147C75.0903 7.9993 74.2301 7.13916 73.198 7.13916Z" fill="white"/>
<path d="M82.0574 7.13916C81.0252 7.13916 80.165 7.9993 80.165 9.03147C80.165 10.0636 81.0252 10.9238 82.0574 10.9238C83.0895 10.9238 83.9497 10.0636 83.9497 9.03147C83.9497 7.9993 83.1755 7.13916 82.0574 7.13916Z" fill="white"/>
<path d="M19.6971 16.6868C18.6649 16.6868 17.8048 17.5469 17.8048 18.5791C17.8048 19.6112 18.6649 20.4714 19.6971 20.4714C20.7293 20.4714 21.5894 19.6112 21.5894 18.5791C21.5894 17.5469 20.7293 16.6868 19.6971 16.6868Z" fill="white"/>
<path d="M28.6427 16.6868C27.6105 16.6868 26.7504 17.5469 26.7504 18.5791C26.7504 19.6112 27.6105 20.4714 28.6427 20.4714C29.6748 20.4714 30.535 19.6112 30.535 18.5791C30.535 17.5469 29.6748 16.6868 28.6427 16.6868Z" fill="white"/>
<path d="M37.5022 16.6868C36.47 16.6868 35.6099 17.5469 35.6099 18.5791C35.6099 19.6112 36.47 20.4714 37.5022 20.4714C38.5343 20.4714 39.3945 19.6112 39.3945 18.5791C39.3945 17.5469 38.6204 16.6868 37.5022 16.6868Z" fill="white"/>
<path d="M46.4476 16.6868C45.4154 16.6868 44.5553 17.5469 44.5553 18.5791C44.5553 19.6112 45.4154 20.4714 46.4476 20.4714C47.4798 20.4714 48.3399 19.6112 48.3399 18.5791C48.3399 17.5469 47.4798 16.6868 46.4476 16.6868Z" fill="white"/>
<path d="M55.3929 16.6868C54.3608 16.6868 53.5006 17.5469 53.5006 18.5791C53.5006 19.6112 54.3608 20.4714 55.3929 20.4714C56.4251 20.4714 57.2852 19.6112 57.2852 18.5791C57.2852 17.5469 56.4251 16.6868 55.3929 16.6868Z" fill="white"/>
<path d="M64.2524 16.6868C63.2202 16.6868 62.3601 17.5469 62.3601 18.5791C62.3601 19.6112 63.2202 20.4714 64.2524 20.4714C65.2846 20.4714 66.1447 19.6112 66.1447 18.5791C66.1447 17.5469 65.2846 16.6868 64.2524 16.6868Z" fill="white"/>
<path d="M73.198 16.6868C72.1658 16.6868 71.3057 17.5469 71.3057 18.5791C71.3057 19.6112 72.1658 20.4714 73.198 20.4714C74.2301 20.4714 75.0903 19.6112 75.0903 18.5791C75.0903 17.5469 74.2301 16.6868 73.198 16.6868Z" fill="white"/>
<path d="M82.0574 16.6868C81.0252 16.6868 80.165 17.5469 80.165 18.5791C80.165 19.6112 81.0252 20.4714 82.0574 20.4714C83.0895 20.4714 83.9497 19.6112 83.9497 18.5791C83.9497 17.5469 83.1755 16.6868 82.0574 16.6868Z" fill="white"/>
<path d="M91.0028 16.6868C89.9706 16.6868 89.1105 17.5469 89.1105 18.5791C89.1105 19.6112 89.9706 20.4714 91.0028 20.4714C92.035 20.4714 92.8951 19.6112 92.8951 18.5791C92.8951 17.5469 92.035 16.6868 91.0028 16.6868Z" fill="white"/>
<path d="M10.8377 26.2344C9.80558 26.2344 8.94543 27.0945 8.94543 28.1267C8.94543 29.1589 9.80558 30.019 10.8377 30.019C11.8699 30.019 12.7301 29.1589 12.7301 28.1267C12.7301 27.0085 11.8699 26.2344 10.8377 26.2344Z" fill="white"/>
<path d="M19.6971 26.2344C18.6649 26.2344 17.8048 27.0945 17.8048 28.1267C17.8048 29.1589 18.6649 30.019 19.6971 30.019C20.7293 30.019 21.5894 29.1589 21.5894 28.1267C21.5894 27.0085 20.7293 26.2344 19.6971 26.2344Z" fill="white"/>
<path d="M28.6427 26.2344C27.6105 26.2344 26.7504 27.0945 26.7504 28.1267C26.7504 29.1589 27.6105 30.019 28.6427 30.019C29.6748 30.019 30.535 29.1589 30.535 28.1267C30.535 27.0085 29.6748 26.2344 28.6427 26.2344Z" fill="white"/>
<path d="M37.5022 26.2344C36.47 26.2344 35.6099 27.0945 35.6099 28.1267C35.6099 29.1589 36.47 30.019 37.5022 30.019C38.5343 30.019 39.3945 29.1589 39.3945 28.1267C39.4805 27.0085 38.6204 26.2344 37.5022 26.2344Z" fill="white"/>
<path d="M46.4476 26.2344C45.4154 26.2344 44.5553 27.0945 44.5553 28.1267C44.5553 29.1589 45.4154 30.019 46.4476 30.019C47.4798 30.019 48.3399 29.1589 48.3399 28.1267C48.3399 27.0085 47.4798 26.2344 46.4476 26.2344Z" fill="white"/>
<path d="M55.3929 26.2344C54.3608 26.2344 53.5006 27.0945 53.5006 28.1267C53.5006 29.1589 54.3608 30.019 55.3929 30.019C56.4251 30.019 57.2852 29.1589 57.2852 28.1267C57.2852 27.0085 56.4251 26.2344 55.3929 26.2344Z" fill="white"/>
<path d="M64.2524 26.2344C63.2202 26.2344 62.3601 27.0945 62.3601 28.1267C62.3601 29.1589 63.2202 30.019 64.2524 30.019C65.2846 30.019 66.1447 29.1589 66.1447 28.1267C66.1447 27.0085 65.2846 26.2344 64.2524 26.2344Z" fill="white"/>
<path d="M73.198 26.2344C72.1658 26.2344 71.3057 27.0945 71.3057 28.1267C71.3057 29.1589 72.1658 30.019 73.198 30.019C74.2301 30.019 75.0903 29.1589 75.0903 28.1267C75.0903 27.0085 74.2301 26.2344 73.198 26.2344Z" fill="white"/>
<path d="M82.0574 26.2344C81.0252 26.2344 80.165 27.0945 80.165 28.1267C80.165 29.1589 81.0252 30.019 82.0574 30.019C83.0895 30.019 83.9497 29.1589 83.9497 28.1267C84.0357 27.0085 83.1755 26.2344 82.0574 26.2344Z" fill="white"/>
<path d="M91.0028 26.2344C89.9706 26.2344 89.1105 27.0945 89.1105 28.1267C89.1105 29.1589 89.9706 30.019 91.0028 30.019C92.035 30.019 92.8951 29.1589 92.8951 28.1267C92.8951 27.0085 92.035 26.2344 91.0028 26.2344Z" fill="white"/>
<path d="M99.9482 26.2344C98.916 26.2344 98.0559 27.0945 98.0559 28.1267C98.0559 29.1589 98.916 30.019 99.9482 30.019C100.98 30.019 101.841 29.1589 101.841 28.1267C101.841 27.0085 100.98 26.2344 99.9482 26.2344Z" fill="white"/>
<path d="M3.78461 37.5882C3.78461 36.8141 3.35454 36.126 2.66643 35.8679C2.23636 37.0721 1.80629 38.1903 1.37622 39.3945C1.54825 39.3945 1.72028 39.4805 1.8923 39.4805C2.92447 39.4805 3.78461 38.6204 3.78461 37.5882Z" fill="white"/>
<path d="M10.8377 35.6958C9.80558 35.6958 8.94543 36.5559 8.94543 37.5881C8.94543 38.6203 9.80558 39.4804 10.8377 39.4804C11.8699 39.4804 12.7301 38.6203 12.7301 37.5881C12.7301 36.5559 11.8699 35.6958 10.8377 35.6958Z" fill="white"/>
<path d="M19.6971 39.4804C20.7422 39.4804 21.5894 38.6332 21.5894 37.5881C21.5894 36.543 20.7422 35.6958 19.6971 35.6958C18.652 35.6958 17.8048 36.543 17.8048 37.5881C17.8048 38.6332 18.652 39.4804 19.6971 39.4804Z" fill="white"/>
<path d="M28.6427 35.6958C27.6105 35.6958 26.7504 36.5559 26.7504 37.5881C26.7504 38.6203 27.6105 39.4804 28.6427 39.4804C29.6748 39.4804 30.535 38.6203 30.535 37.5881C30.535 36.5559 29.6748 35.6958 28.6427 35.6958Z" fill="white"/>
<path d="M37.5022 35.6958C36.47 35.6958 35.6099 36.5559 35.6099 37.5881C35.6099 38.6203 36.47 39.4804 37.5022 39.4804C38.5343 39.4804 39.3945 38.6203 39.3945 37.5881C39.3945 36.5559 38.6204 35.6958 37.5022 35.6958Z" fill="white"/>
<path d="M46.4476 35.6958C45.4154 35.6958 44.5553 36.5559 44.5553 37.5881C44.5553 38.6203 45.4154 39.4804 46.4476 39.4804C47.4798 39.4804 48.3399 38.6203 48.3399 37.5881C48.3399 36.5559 47.4798 35.6958 46.4476 35.6958Z" fill="white"/>
<path d="M55.3929 39.4804C56.438 39.4804 57.2852 38.6332 57.2852 37.5881C57.2852 36.543 56.438 35.6958 55.3929 35.6958C54.3478 35.6958 53.5006 36.543 53.5006 37.5881C53.5006 38.6332 54.3478 39.4804 55.3929 39.4804Z" fill="white"/>
<path d="M64.2524 35.6958C63.2202 35.6958 62.3601 36.5559 62.3601 37.5881C62.3601 38.6203 63.2202 39.4804 64.2524 39.4804C65.2846 39.4804 66.1447 38.6203 66.1447 37.5881C66.1447 36.5559 65.2846 35.6958 64.2524 35.6958Z" fill="white"/>
<path d="M73.198 35.6958C72.1658 35.6958 71.3057 36.5559 71.3057 37.5881C71.3057 38.6203 72.1658 39.4804 73.198 39.4804C74.2301 39.4804 75.0903 38.6203 75.0903 37.5881C75.0903 36.5559 74.2301 35.6958 73.198 35.6958Z" fill="white"/>
<path d="M82.0574 35.6958C81.0252 35.6958 80.165 36.5559 80.165 37.5881C80.165 38.6203 81.0252 39.4804 82.0574 39.4804C83.0895 39.4804 83.9497 38.6203 83.9497 37.5881C83.9497 36.5559 83.1755 35.6958 82.0574 35.6958Z" fill="white"/>
<path d="M91.0028 39.4804C92.0479 39.4804 92.8951 38.6332 92.8951 37.5881C92.8951 36.543 92.0479 35.6958 91.0028 35.6958C89.9577 35.6958 89.1105 36.543 89.1105 37.5881C89.1105 38.6332 89.9577 39.4804 91.0028 39.4804Z" fill="white"/>
<path d="M99.9482 35.6958C98.916 35.6958 98.0559 36.5559 98.0559 37.5881C98.0559 38.6203 98.916 39.4804 99.9482 39.4804C100.98 39.4804 101.841 38.6203 101.841 37.5881C101.841 36.5559 100.98 35.6958 99.9482 35.6958Z" fill="white"/>
<path d="M106.915 37.5882C106.915 38.6204 107.776 39.4805 108.808 39.4805C108.98 39.4805 109.152 39.4805 109.324 39.3945C108.98 38.1903 108.55 36.9861 108.034 35.8679C107.431 36.126 106.915 36.8141 106.915 37.5882Z" fill="white"/>
<path d="M1.89231 45.2434C0.86014 45.2434 0 46.1035 0 47.1357C0 48.1679 0.86014 49.028 1.89231 49.028C2.92448 49.028 3.78462 48.1679 3.78462 47.1357C3.78462 46.0175 2.92448 45.2434 1.89231 45.2434Z" fill="white"/>
<path d="M10.8377 45.2434C9.80558 45.2434 8.94543 46.1035 8.94543 47.1357C8.94543 48.1679 9.80558 49.028 10.8377 49.028C11.8699 49.028 12.7301 48.1679 12.7301 47.1357C12.7301 46.0175 11.8699 45.2434 10.8377 45.2434Z" fill="white"/>
<path d="M19.6971 45.2434C18.6649 45.2434 17.8048 46.1035 17.8048 47.1357C17.8048 48.1679 18.6649 49.028 19.6971 49.028C20.7293 49.028 21.5894 48.1679 21.5894 47.1357C21.5894 46.0175 20.7293 45.2434 19.6971 45.2434Z" fill="white"/>
<path d="M28.6427 45.2434C27.6105 45.2434 26.7504 46.1035 26.7504 47.1357C26.7504 48.1679 27.6105 49.028 28.6427 49.028C29.6748 49.028 30.535 48.1679 30.535 47.1357C30.535 46.0175 29.6748 45.2434 28.6427 45.2434Z" fill="white"/>
<path d="M37.5022 45.2434C36.47 45.2434 35.6099 46.1035 35.6099 47.1357C35.6099 48.1679 36.47 49.028 37.5022 49.028C38.5343 49.028 39.3945 48.1679 39.3945 47.1357C39.4805 46.0175 38.6204 45.2434 37.5022 45.2434Z" fill="white"/>
<path d="M46.4476 45.2434C45.4154 45.2434 44.5553 46.1035 44.5553 47.1357C44.5553 48.1679 45.4154 49.028 46.4476 49.028C47.4798 49.028 48.3399 48.1679 48.3399 47.1357C48.3399 46.0175 47.4798 45.2434 46.4476 45.2434Z" fill="white"/>
<path d="M55.3929 45.2434C54.3608 45.2434 53.5006 46.1035 53.5006 47.1357C53.5006 48.1679 54.3608 49.028 55.3929 49.028C56.4251 49.028 57.2852 48.1679 57.2852 47.1357C57.2852 46.0175 56.4251 45.2434 55.3929 45.2434Z" fill="white"/>
<path d="M64.2524 45.2434C63.2202 45.2434 62.3601 46.1035 62.3601 47.1357C62.3601 48.1679 63.2202 49.028 64.2524 49.028C65.2846 49.028 66.1447 48.1679 66.1447 47.1357C66.1447 46.0175 65.2846 45.2434 64.2524 45.2434Z" fill="white"/>
<path d="M73.198 45.2434C72.1658 45.2434 71.3057 46.1035 71.3057 47.1357C71.3057 48.1679 72.1658 49.028 73.198 49.028C74.2301 49.028 75.0903 48.1679 75.0903 47.1357C75.0903 46.0175 74.2301 45.2434 73.198 45.2434Z" fill="white"/>
<path d="M82.0574 45.2434C81.0252 45.2434 80.165 46.1035 80.165 47.1357C80.165 48.1679 81.0252 49.028 82.0574 49.028C83.0895 49.028 83.9497 48.1679 83.9497 47.1357C84.0357 46.0175 83.1755 45.2434 82.0574 45.2434Z" fill="white"/>
<path d="M91.0028 45.2434C89.9706 45.2434 89.1105 46.1035 89.1105 47.1357C89.1105 48.1679 89.9706 49.028 91.0028 49.028C92.035 49.028 92.8951 48.1679 92.8951 47.1357C92.8951 46.0175 92.035 45.2434 91.0028 45.2434Z" fill="white"/>
<path d="M99.9482 45.2434C98.916 45.2434 98.0559 46.1035 98.0559 47.1357C98.0559 48.1679 98.916 49.028 99.9482 49.028C100.98 49.028 101.841 48.1679 101.841 47.1357C101.841 46.0175 100.98 45.2434 99.9482 45.2434Z" fill="white"/>
<path d="M108.808 45.2434C107.776 45.2434 106.915 46.1035 106.915 47.1357C106.915 48.1679 107.776 49.028 108.808 49.028C109.84 49.028 110.7 48.1679 110.7 47.1357C110.7 46.0175 109.84 45.2434 108.808 45.2434Z" fill="white"/>
<path d="M1.89231 54.7051C0.86014 54.7051 0 55.5652 0 56.5974C0 57.6296 0.86014 58.4897 1.89231 58.4897C2.92448 58.4897 3.78462 57.6296 3.78462 56.5974C3.78462 55.5652 2.92448 54.7051 1.89231 54.7051Z" fill="white"/>
<path d="M10.8377 54.7051C9.80558 54.7051 8.94543 55.5652 8.94543 56.5974C8.94543 57.6296 9.80558 58.4897 10.8377 58.4897C11.8699 58.4897 12.7301 57.6296 12.7301 56.5974C12.7301 55.5652 11.8699 54.7051 10.8377 54.7051Z" fill="white"/>
<path d="M19.6971 58.4897C20.7422 58.4897 21.5894 57.6425 21.5894 56.5974C21.5894 55.5523 20.7422 54.7051 19.6971 54.7051C18.652 54.7051 17.8048 55.5523 17.8048 56.5974C17.8048 57.6425 18.652 58.4897 19.6971 58.4897Z" fill="white"/>
<path d="M28.6427 54.7051C27.6105 54.7051 26.7504 55.5652 26.7504 56.5974C26.7504 57.6296 27.6105 58.4897 28.6427 58.4897C29.6748 58.4897 30.535 57.6296 30.535 56.5974C30.535 55.5652 29.6748 54.7051 28.6427 54.7051Z" fill="white"/>
<path d="M37.5022 54.7051C36.47 54.7051 35.6099 55.5652 35.6099 56.5974C35.6099 57.6296 36.47 58.4897 37.5022 58.4897C38.5343 58.4897 39.3945 57.6296 39.3945 56.5974C39.4805 55.5652 38.6204 54.7051 37.5022 54.7051Z" fill="white"/>
<path d="M46.4476 54.7051C45.4154 54.7051 44.5553 55.5652 44.5553 56.5974C44.5553 57.6296 45.4154 58.4897 46.4476 58.4897C47.4798 58.4897 48.3399 57.6296 48.3399 56.5974C48.3399 55.5652 47.4798 54.7051 46.4476 54.7051Z" fill="white"/>
<path d="M55.3929 58.4897C56.438 58.4897 57.2852 57.6425 57.2852 56.5974C57.2852 55.5523 56.438 54.7051 55.3929 54.7051C54.3478 54.7051 53.5006 55.5523 53.5006 56.5974C53.5006 57.6425 54.3478 58.4897 55.3929 58.4897Z" fill="white"/>
<path d="M64.2524 54.7051C63.2202 54.7051 62.3601 55.5652 62.3601 56.5974C62.3601 57.6296 63.2202 58.4897 64.2524 58.4897C65.2846 58.4897 66.1447 57.6296 66.1447 56.5974C66.1447 55.5652 65.2846 54.7051 64.2524 54.7051Z" fill="white"/>
<path d="M73.198 54.7051C72.1658 54.7051 71.3057 55.5652 71.3057 56.5974C71.3057 57.6296 72.1658 58.4897 73.198 58.4897C74.2301 58.4897 75.0903 57.6296 75.0903 56.5974C75.0903 55.5652 74.2301 54.7051 73.198 54.7051Z" fill="white"/>
<path d="M82.0574 54.7051C81.0252 54.7051 80.165 55.5652 80.165 56.5974C80.165 57.6296 81.0252 58.4897 82.0574 58.4897C83.0895 58.4897 83.9497 57.6296 83.9497 56.5974C84.0357 55.5652 83.1755 54.7051 82.0574 54.7051Z" fill="white"/>
<path d="M91.0028 58.4897C92.0479 58.4897 92.8951 57.6425 92.8951 56.5974C92.8951 55.5523 92.0479 54.7051 91.0028 54.7051C89.9577 54.7051 89.1105 55.5523 89.1105 56.5974C89.1105 57.6425 89.9577 58.4897 91.0028 58.4897Z" fill="white"/>
<path d="M99.9482 54.7051C98.916 54.7051 98.0559 55.5652 98.0559 56.5974C98.0559 57.6296 98.916 58.4897 99.9482 58.4897C100.98 58.4897 101.841 57.6296 101.841 56.5974C101.841 55.5652 100.98 54.7051 99.9482 54.7051Z" fill="white"/>
<path d="M108.808 54.7051C107.776 54.7051 106.915 55.5652 106.915 56.5974C106.915 57.6296 107.776 58.4897 108.808 58.4897C109.84 58.4897 110.7 57.6296 110.7 56.5974C110.7 55.5652 109.84 54.7051 108.808 54.7051Z" fill="white"/>
<path d="M1.89231 64.2524C0.86014 64.2524 0 65.1126 0 66.1448C0 67.1769 0.86014 68.0371 1.89231 68.0371C2.92448 68.0371 3.78462 67.1769 3.78462 66.1448C3.78462 65.1126 2.92448 64.2524 1.89231 64.2524Z" fill="white"/>
<path d="M10.8377 64.2524C9.80558 64.2524 8.94543 65.1126 8.94543 66.1448C8.94543 67.1769 9.80558 68.0371 10.8377 68.0371C11.8699 68.0371 12.7301 67.1769 12.7301 66.1448C12.7301 65.1126 11.8699 64.2524 10.8377 64.2524Z" fill="white"/>
<path d="M19.6971 68.0371C20.7422 68.0371 21.5894 67.1898 21.5894 66.1448C21.5894 65.0997 20.7422 64.2524 19.6971 64.2524C18.652 64.2524 17.8048 65.0997 17.8048 66.1448C17.8048 67.1898 18.652 68.0371 19.6971 68.0371Z" fill="white"/>
<path d="M28.6427 64.2524C27.6105 64.2524 26.7504 65.1126 26.7504 66.1448C26.7504 67.1769 27.6105 68.0371 28.6427 68.0371C29.6748 68.0371 30.535 67.1769 30.535 66.1448C30.535 65.1126 29.6748 64.2524 28.6427 64.2524Z" fill="white"/>
<path d="M37.5022 64.2524C36.47 64.2524 35.6099 65.1126 35.6099 66.1448C35.6099 67.1769 36.47 68.0371 37.5022 68.0371C38.5343 68.0371 39.3945 67.1769 39.3945 66.1448C39.3945 65.1126 38.6204 64.2524 37.5022 64.2524Z" fill="white"/>
<path d="M46.4476 64.2524C45.4154 64.2524 44.5553 65.1126 44.5553 66.1448C44.5553 67.1769 45.4154 68.0371 46.4476 68.0371C47.4798 68.0371 48.3399 67.1769 48.3399 66.1448C48.3399 65.1126 47.4798 64.2524 46.4476 64.2524Z" fill="white"/>
<path d="M55.3929 68.0371C56.438 68.0371 57.2852 67.1898 57.2852 66.1448C57.2852 65.0997 56.438 64.2524 55.3929 64.2524C54.3478 64.2524 53.5006 65.0997 53.5006 66.1448C53.5006 67.1898 54.3478 68.0371 55.3929 68.0371Z" fill="white"/>
<path d="M64.2524 64.2524C63.2202 64.2524 62.3601 65.1126 62.3601 66.1448C62.3601 67.1769 63.2202 68.0371 64.2524 68.0371C65.2846 68.0371 66.1447 67.1769 66.1447 66.1448C66.1447 65.1126 65.2846 64.2524 64.2524 64.2524Z" fill="white"/>
<path d="M73.198 64.2524C72.1658 64.2524 71.3057 65.1126 71.3057 66.1448C71.3057 67.1769 72.1658 68.0371 73.198 68.0371C74.2301 68.0371 75.0903 67.1769 75.0903 66.1448C75.0903 65.1126 74.2301 64.2524 73.198 64.2524Z" fill="white"/>
<path d="M82.0574 64.2524C81.0252 64.2524 80.165 65.1126 80.165 66.1448C80.165 67.1769 81.0252 68.0371 82.0574 68.0371C83.0895 68.0371 83.9497 67.1769 83.9497 66.1448C83.9497 65.1126 83.1755 64.2524 82.0574 64.2524Z" fill="white"/>
<path d="M91.0028 68.0371C92.0479 68.0371 92.8951 67.1898 92.8951 66.1448C92.8951 65.0997 92.0479 64.2524 91.0028 64.2524C89.9577 64.2524 89.1105 65.0997 89.1105 66.1448C89.1105 67.1898 89.9577 68.0371 91.0028 68.0371Z" fill="white"/>
<path d="M99.9482 64.2524C98.916 64.2524 98.0559 65.1126 98.0559 66.1448C98.0559 67.1769 98.916 68.0371 99.9482 68.0371C100.98 68.0371 101.841 67.1769 101.841 66.1448C101.841 65.1126 100.98 64.2524 99.9482 64.2524Z" fill="white"/>
<path d="M108.808 64.2524C107.776 64.2524 106.915 65.1126 106.915 66.1448C106.915 67.1769 107.776 68.0371 108.808 68.0371C109.84 68.0371 110.7 67.1769 110.7 66.1448C110.7 65.1126 109.84 64.2524 108.808 64.2524Z" fill="white"/>
<path d="M3.78461 75.6064C3.78461 74.5743 2.92447 73.7141 1.8923 73.7141C1.72028 73.7141 1.54825 73.7141 1.37622 73.8001C1.72028 75.0043 2.15035 76.2085 2.66643 77.3267C3.35454 77.0687 3.78461 76.3805 3.78461 75.6064Z" fill="white"/>
<path d="M10.8377 73.7141C9.80558 73.7141 8.94543 74.5743 8.94543 75.6064C8.94543 76.6386 9.80558 77.4987 10.8377 77.4987C11.8699 77.4987 12.7301 76.6386 12.7301 75.6064C12.7301 74.5743 11.8699 73.7141 10.8377 73.7141Z" fill="white"/>
<path d="M19.6971 73.7141C18.6649 73.7141 17.8048 74.5743 17.8048 75.6064C17.8048 76.6386 18.6649 77.4987 19.6971 77.4987C20.7293 77.4987 21.5894 76.6386 21.5894 75.6064C21.5894 74.5743 20.7293 73.7141 19.6971 73.7141Z" fill="white"/>
<path d="M28.6427 73.7141C27.6105 73.7141 26.7504 74.5743 26.7504 75.6064C26.7504 76.6386 27.6105 77.4987 28.6427 77.4987C29.6748 77.4987 30.535 76.6386 30.535 75.6064C30.535 74.5743 29.6748 73.7141 28.6427 73.7141Z" fill="white"/>
<path d="M37.5022 73.7141C36.47 73.7141 35.6099 74.5743 35.6099 75.6064C35.6099 76.6386 36.47 77.4987 37.5022 77.4987C38.5343 77.4987 39.3945 76.6386 39.3945 75.6064C39.4805 74.5743 38.6204 73.7141 37.5022 73.7141Z" fill="white"/>
<path d="M46.4476 73.7141C45.4154 73.7141 44.5553 74.5743 44.5553 75.6064C44.5553 76.6386 45.4154 77.4987 46.4476 77.4987C47.4798 77.4987 48.3399 76.6386 48.3399 75.6064C48.3399 74.5743 47.4798 73.7141 46.4476 73.7141Z" fill="white"/>
<path d="M55.3929 73.7141C54.3608 73.7141 53.5006 74.5743 53.5006 75.6064C53.5006 76.6386 54.3608 77.4987 55.3929 77.4987C56.4251 77.4987 57.2852 76.6386 57.2852 75.6064C57.2852 74.5743 56.4251 73.7141 55.3929 73.7141Z" fill="white"/>
<path d="M64.2524 73.7141C63.2202 73.7141 62.3601 74.5743 62.3601 75.6064C62.3601 76.6386 63.2202 77.4987 64.2524 77.4987C65.2846 77.4987 66.1447 76.6386 66.1447 75.6064C66.1447 74.5743 65.2846 73.7141 64.2524 73.7141Z" fill="white"/>
<path d="M73.198 73.7141C72.1658 73.7141 71.3057 74.5743 71.3057 75.6064C71.3057 76.6386 72.1658 77.4987 73.198 77.4987C74.2301 77.4987 75.0903 76.6386 75.0903 75.6064C75.0903 74.5743 74.2301 73.7141 73.198 73.7141Z" fill="white"/>
<path d="M82.0574 73.7141C81.0252 73.7141 80.165 74.5743 80.165 75.6064C80.165 76.6386 81.0252 77.4987 82.0574 77.4987C83.0895 77.4987 83.9497 76.6386 83.9497 75.6064C84.0357 74.5743 83.1755 73.7141 82.0574 73.7141Z" fill="white"/>
<path d="M91.0028 73.7141C89.9706 73.7141 89.1105 74.5743 89.1105 75.6064C89.1105 76.6386 89.9706 77.4987 91.0028 77.4987C92.035 77.4987 92.8951 76.6386 92.8951 75.6064C92.8951 74.5743 92.035 73.7141 91.0028 73.7141Z" fill="white"/>
<path d="M99.9482 73.7141C98.916 73.7141 98.0559 74.5743 98.0559 75.6064C98.0559 76.6386 98.916 77.4987 99.9482 77.4987C100.98 77.4987 101.841 76.6386 101.841 75.6064C101.841 74.5743 100.98 73.7141 99.9482 73.7141Z" fill="white"/>
<path d="M106.915 75.6064C106.915 76.3805 107.345 77.0687 108.034 77.3267C108.464 76.1225 108.894 75.0043 109.324 73.8001C109.152 73.8001 108.98 73.7141 108.808 73.7141C107.776 73.7141 106.915 74.5743 106.915 75.6064Z" fill="white"/>
<path d="M10.8377 83.2617C9.80558 83.2617 8.94543 84.1219 8.94543 85.154C8.94543 86.1862 9.80558 87.0463 10.8377 87.0463C11.8699 87.0463 12.7301 86.1862 12.7301 85.154C12.7301 84.1219 11.8699 83.2617 10.8377 83.2617Z" fill="white"/>
<path d="M19.6971 87.0463C20.7422 87.0463 21.5894 86.1991 21.5894 85.154C21.5894 84.1089 20.7422 83.2617 19.6971 83.2617C18.652 83.2617 17.8048 84.1089 17.8048 85.154C17.8048 86.1991 18.652 87.0463 19.6971 87.0463Z" fill="white"/>
<path d="M28.6427 83.2617C27.6105 83.2617 26.7504 84.1219 26.7504 85.154C26.7504 86.1862 27.6105 87.0463 28.6427 87.0463C29.6748 87.0463 30.535 86.1862 30.535 85.154C30.535 84.1219 29.6748 83.2617 28.6427 83.2617Z" fill="white"/>
<path d="M37.5022 83.2617C36.47 83.2617 35.6099 84.1219 35.6099 85.154C35.6099 86.1862 36.47 87.0463 37.5022 87.0463C38.5343 87.0463 39.3945 86.1862 39.3945 85.154C39.3945 84.1219 38.6204 83.2617 37.5022 83.2617Z" fill="white"/>
<path d="M46.4476 83.2617C45.4154 83.2617 44.5553 84.1219 44.5553 85.154C44.5553 86.1862 45.4154 87.0463 46.4476 87.0463C47.4798 87.0463 48.3399 86.1862 48.3399 85.154C48.3399 84.1219 47.4798 83.2617 46.4476 83.2617Z" fill="white"/>
<path d="M55.3929 87.0463C56.438 87.0463 57.2852 86.1991 57.2852 85.154C57.2852 84.1089 56.438 83.2617 55.3929 83.2617C54.3478 83.2617 53.5006 84.1089 53.5006 85.154C53.5006 86.1991 54.3478 87.0463 55.3929 87.0463Z" fill="white"/>
<path d="M64.2524 83.2617C63.2202 83.2617 62.3601 84.1219 62.3601 85.154C62.3601 86.1862 63.2202 87.0463 64.2524 87.0463C65.2846 87.0463 66.1447 86.1862 66.1447 85.154C66.1447 84.1219 65.2846 83.2617 64.2524 83.2617Z" fill="white"/>
<path d="M73.198 83.2617C72.1658 83.2617 71.3057 84.1219 71.3057 85.154C71.3057 86.1862 72.1658 87.0463 73.198 87.0463C74.2301 87.0463 75.0903 86.1862 75.0903 85.154C75.0903 84.1219 74.2301 83.2617 73.198 83.2617Z" fill="white"/>
<path d="M82.0574 83.2617C81.0252 83.2617 80.165 84.1219 80.165 85.154C80.165 86.1862 81.0252 87.0463 82.0574 87.0463C83.0895 87.0463 83.9497 86.1862 83.9497 85.154C83.9497 84.1219 83.1755 83.2617 82.0574 83.2617Z" fill="white"/>
<path d="M91.0028 87.0463C92.0479 87.0463 92.8951 86.1991 92.8951 85.154C92.8951 84.1089 92.0479 83.2617 91.0028 83.2617C89.9577 83.2617 89.1105 84.1089 89.1105 85.154C89.1105 86.1991 89.9577 87.0463 91.0028 87.0463Z" fill="white"/>
<path d="M99.9482 83.2617C98.916 83.2617 98.0559 84.1219 98.0559 85.154C98.0559 86.1862 98.916 87.0463 99.9482 87.0463C100.98 87.0463 101.841 86.1862 101.841 85.154C101.841 84.1219 100.98 83.2617 99.9482 83.2617Z" fill="white"/>
<path d="M19.6971 92.7231C18.6649 92.7231 17.8048 93.5833 17.8048 94.6154C17.8048 95.6476 18.6649 96.5078 19.6971 96.5078C20.7293 96.5078 21.5894 95.6476 21.5894 94.6154C21.5894 93.5833 20.7293 92.7231 19.6971 92.7231Z" fill="white"/>
<path d="M28.6427 92.7231C27.6105 92.7231 26.7504 93.5833 26.7504 94.6154C26.7504 95.6476 27.6105 96.5078 28.6427 96.5078C29.6748 96.5078 30.535 95.6476 30.535 94.6154C30.535 93.5833 29.6748 92.7231 28.6427 92.7231Z" fill="white"/>
<path d="M37.5022 92.7231C36.47 92.7231 35.6099 93.5833 35.6099 94.6154C35.6099 95.6476 36.47 96.5078 37.5022 96.5078C38.5343 96.5078 39.3945 95.6476 39.3945 94.6154C39.4805 93.5833 38.6204 92.7231 37.5022 92.7231Z" fill="white"/>
<path d="M46.4476 92.7231C45.4154 92.7231 44.5553 93.5833 44.5553 94.6154C44.5553 95.6476 45.4154 96.5078 46.4476 96.5078C47.4798 96.5078 48.3399 95.6476 48.3399 94.6154C48.3399 93.5833 47.4798 92.7231 46.4476 92.7231Z" fill="white"/>
<path d="M55.3929 92.7231C54.3608 92.7231 53.5006 93.5833 53.5006 94.6154C53.5006 95.6476 54.3608 96.5078 55.3929 96.5078C56.4251 96.5078 57.2852 95.6476 57.2852 94.6154C57.2852 93.5833 56.4251 92.7231 55.3929 92.7231Z" fill="white"/>
<path d="M64.2524 92.7231C63.2202 92.7231 62.3601 93.5833 62.3601 94.6154C62.3601 95.6476 63.2202 96.5078 64.2524 96.5078C65.2846 96.5078 66.1447 95.6476 66.1447 94.6154C66.1447 93.5833 65.2846 92.7231 64.2524 92.7231Z" fill="white"/>
<path d="M73.198 92.7231C72.1658 92.7231 71.3057 93.5833 71.3057 94.6154C71.3057 95.6476 72.1658 96.5078 73.198 96.5078C74.2301 96.5078 75.0903 95.6476 75.0903 94.6154C75.0903 93.5833 74.2301 92.7231 73.198 92.7231Z" fill="white"/>
<path d="M82.0574 92.7231C81.0252 92.7231 80.165 93.5833 80.165 94.6154C80.165 95.6476 81.0252 96.5078 82.0574 96.5078C83.0895 96.5078 83.9497 95.6476 83.9497 94.6154C84.0357 93.5833 83.1755 92.7231 82.0574 92.7231Z" fill="white"/>
<path d="M91.0028 92.7231C89.9706 92.7231 89.1105 93.5833 89.1105 94.6154C89.1105 95.6476 89.9706 96.5078 91.0028 96.5078C92.035 96.5078 92.8951 95.6476 92.8951 94.6154C92.8951 93.5833 92.035 92.7231 91.0028 92.7231Z" fill="white"/>
<path d="M28.6427 102.271C27.6105 102.271 26.7504 103.131 26.7504 104.163C26.7504 105.195 27.6105 106.055 28.6427 106.055C29.6748 106.055 30.535 105.195 30.535 104.163C30.535 103.131 29.6748 102.271 28.6427 102.271Z" fill="white"/>
<path d="M37.5022 102.271C36.47 102.271 35.6099 103.131 35.6099 104.163C35.6099 105.195 36.47 106.055 37.5022 106.055C38.5343 106.055 39.3945 105.195 39.3945 104.163C39.3945 103.131 38.6204 102.271 37.5022 102.271Z" fill="white"/>
<path d="M46.4476 102.271C45.4154 102.271 44.5553 103.131 44.5553 104.163C44.5553 105.195 45.4154 106.055 46.4476 106.055C47.4798 106.055 48.3399 105.195 48.3399 104.163C48.3399 103.131 47.4798 102.271 46.4476 102.271Z" fill="white"/>
<path d="M55.3929 102.271C54.3608 102.271 53.5006 103.131 53.5006 104.163C53.5006 105.195 54.3608 106.055 55.3929 106.055C56.4251 106.055 57.2852 105.195 57.2852 104.163C57.2852 103.131 56.4251 102.271 55.3929 102.271Z" fill="white"/>
<path d="M64.2524 102.271C63.2202 102.271 62.3601 103.131 62.3601 104.163C62.3601 105.195 63.2202 106.055 64.2524 106.055C65.2846 106.055 66.1447 105.195 66.1447 104.163C66.1447 103.131 65.2846 102.271 64.2524 102.271Z" fill="white"/>
<path d="M73.198 102.271C72.1658 102.271 71.3057 103.131 71.3057 104.163C71.3057 105.195 72.1658 106.055 73.198 106.055C74.2301 106.055 75.0903 105.195 75.0903 104.163C75.0903 103.131 74.2301 102.271 73.198 102.271Z" fill="white"/>
<path d="M82.0574 102.271C81.0252 102.271 80.165 103.131 80.165 104.163C80.165 105.195 81.0252 106.055 82.0574 106.055C83.0895 106.055 83.9497 105.195 83.9497 104.163C83.9497 103.131 83.1755 102.271 82.0574 102.271Z" fill="white"/>
<path d="M46.4476 111.732C45.9315 111.732 45.5014 111.904 45.1573 112.248C46.1035 112.42 47.1357 112.592 48.1678 112.678C47.8238 112.162 47.1357 111.732 46.4476 111.732Z" fill="white"/>
<path d="M55.3931 111.732C54.5329 111.732 53.7588 112.334 53.5868 113.194C54.1889 113.194 54.791 113.194 55.3931 113.194C55.9952 113.194 56.5973 113.194 57.1994 113.194C57.0274 112.334 56.2532 111.732 55.3931 111.732Z" fill="white"/>
<path d="M62.6183 112.764C63.6505 112.678 64.5966 112.506 65.6288 112.334C65.2847 111.99 64.8547 111.818 64.3386 111.818C63.5644 111.732 62.9623 112.162 62.6183 112.764Z" fill="white"/>
</g>
<path d="M178.9 20L170.5 28.3L162.2 20L159 23.1L167.4 31.5L159 39.8L162.2 43L170.5 34.6L178.9 43L182 39.8L173.7 31.5L182 23.1L178.9 20Z" fill="#E8EAEE" fill-opacity="0.2"/>
<path d="M124.425 88.725C122.525 86.825 122.525 83.725 124.425 81.925L153.425 52.925C155.325 51.025 158.425 51.025 160.225 52.925C162.125 54.825 162.125 57.925 160.225 59.725L131.225 88.725C129.325 90.525 126.325 90.525 124.425 88.725Z" fill="url(#paint0_linear)"/>
<path d="M142.925 98.825C141.025 96.925 141.025 93.825 142.925 92.025L195.425 39.425C197.325 37.525 200.425 37.525 202.225 39.425C204.125 41.325 204.125 44.425 202.225 46.225L149.725 98.725C147.825 100.725 144.825 100.725 142.925 98.825Z" fill="url(#paint1_linear)"/>
<path d="M24.4281 111.008L18 116.252H177.9L173.079 112.699L24.4281 111.008Z" fill="#A6A6D1"/>
<path d="M126.263 59.8362H70.5247V117.055H126.263V59.8362Z" fill="#E8F1F9"/>
<path d="M70.5247 81.658H22.948V117.055H70.5247V81.658Z" fill="#E8F1F9"/>
<path opacity="0.43" d="M62.3627 81.658C56.6112 93.5416 50.5213 105.298 44.5161 117.055H70.5247V81.658H62.3627Z" fill="#E8F1F9"/>
<path d="M173.84 94.1758H126.263V117.097H173.84V94.1758Z" fill="#E8F1F9"/>
<path opacity="0.43" d="M136.709 94.1758H126.263V117.097H153.752C147.705 109.739 141.953 102.126 136.709 94.1758Z" fill="#E8F1F9"/>
<path d="M177.9 116.251H18V120.903H177.9V116.251Z" fill="#CACAEA"/>
<path opacity="0.42" d="M177.9 118.577H18V120.903H177.9V118.577Z" fill="#CACAEA"/>
<path d="M173.84 94.1759H126.263V88.3398H160.476L173.84 94.1759Z" fill="#C1D9EA"/>
<path d="M22.948 81.6579H70.5247V75.8218H36.3118L22.948 81.6579Z" fill="#C1D9EA"/>
<path d="M112.9 54H83.8884L70.5247 59.8361H126.263L112.9 54Z" fill="#C1D9EA"/>
<path d="M130.492 88.3398L139.035 94.1759V116.252H161.153V94.1759L152.018 88.3398H130.492Z" fill="#DB466A"/>
<path d="M147.324 109.062C147.705 109.316 148.635 109.696 149.565 109.696C151.342 109.696 151.891 108.555 151.849 107.709C151.849 106.271 150.538 105.679 149.227 105.679H148.466V104.664H149.227C150.242 104.664 151.511 104.156 151.511 102.93C151.511 102.126 151.003 101.407 149.735 101.407C148.931 101.407 148.128 101.788 147.705 102.084L147.324 101.069C147.874 100.689 148.889 100.266 149.988 100.266C151.976 100.266 152.906 101.45 152.906 102.676C152.906 103.733 152.272 104.622 151.046 105.087V105.129C152.314 105.383 153.329 106.313 153.329 107.751C153.329 109.358 152.061 110.796 149.608 110.796C148.466 110.796 147.451 110.415 146.943 110.119L147.324 109.062Z" fill="#E8F1F9"/>
<path opacity="0.38" d="M152.018 88.3398H130.492L139.035 94.1759H161.153L152.018 88.3398Z" fill="#DB466A"/>
<path d="M66.3803 75.8218L57.8376 81.6579V116.251H35.7197V81.6579L44.8545 75.8218H66.3803Z" fill="#DB466A"/>
<path d="M42.8667 103.987V103.141L43.9663 102.084C46.546 99.6312 47.7301 98.2779 47.7724 96.7555C47.7724 95.7405 47.2649 94.7678 45.7424 94.7678C44.8121 94.7678 44.0508 95.233 43.5856 95.6136L43.1627 94.6409C43.8817 94.0489 44.8543 93.626 46.0385 93.626C48.2376 93.626 49.168 95.1484 49.168 96.5863C49.168 98.4471 47.8147 99.9695 45.6579 102.042L44.8543 102.803V102.845H49.4217V103.987H42.8667Z" fill="#E8F1F9"/>
<path opacity="0.38" d="M44.8545 75.8218H66.3803L57.8376 81.6579H35.7197L44.8545 75.8218Z" fill="#DB466A"/>
<path d="M90.9087 54L81.9431 59.8361V116.251H113.999V59.9207L105.837 54H90.9087Z" fill="#DB466A"/>
<path opacity="0.38" d="M105.837 54H90.9087L81.9431 59.8361L113.999 59.9207L105.837 54Z" fill="#DB466A"/>
<path d="M97.5059 83.5609L95.6875 84.5336L95.4337 83.4764L97.6751 82.2922H98.8592V92.4842H97.5059V83.5609Z" fill="#E8F1F9"/>
<path d="M132.031 11.3344L83.6779 0.10398C82.742 -0.10399 81.8061 1.41004e-05 80.9742 0.415953L72.9673 4.47135L78.1666 9.15067L75.255 32.4432C74.9431 34.8349 76.6069 37.3305 78.9985 37.8505L120.593 47.521L126.832 53.1362L132.863 49.1848C133.799 48.5609 134.423 47.521 134.527 46.2732L136.087 16.7415C136.191 14.3499 134.423 11.8543 132.031 11.3344Z" fill="url(#paint2_linear)"/>
<path d="M119.969 47.3133L120.593 47.4172L126.832 53.0324L132.863 49.081C133.799 48.4571 134.423 47.4172 134.527 46.1694L136.087 16.6378C136.191 15.494 135.775 14.2462 135.047 13.3103L122.361 23.2928L119.969 47.3133Z" fill="url(#paint3_linear)"/>
<path d="M125.896 15.286L75.5669 4.05564C73.1752 3.53571 71.0955 5.09547 70.9916 7.48712L69.0158 36.2909C68.8078 38.6825 70.6796 41.1782 72.9673 41.6981L90.9568 45.9615C91.2688 46.0654 91.4767 46.1694 91.4767 46.4814L94.4923 56.3599C94.7003 56.8798 95.4282 57.0878 95.7402 56.6719L102.499 49.081C102.707 48.873 102.915 48.7691 103.227 48.873L123.816 53.6563C126.208 54.1762 128.184 52.7205 128.392 50.2248L129.951 20.6932C130.159 18.3015 128.288 15.9099 125.896 15.286Z" fill="white"/>
<path d="M96.5722 41.3857L93.0367 38.5781C92.8287 38.3702 90.957 36.8104 88.9813 34.8347C86.4856 32.2351 83.262 28.2837 83.574 23.7083C83.886 19.8609 87.3175 17.3653 91.269 18.1972C94.4925 18.8211 97.0922 21.5247 97.7161 24.6442C98.8599 21.9406 101.772 20.3808 104.995 21.0047C108.947 21.8366 111.858 25.5801 111.546 29.4275C111.13 34.0028 107.387 36.4984 104.579 38.0582C102.395 39.202 100.316 40.0339 100.108 40.1379L96.5722 41.3857Z" fill="#E73555"/>
<defs>
<linearGradient id="paint0_linear" x1="109.84" y1="103.248" x2="185" y2="28.0871" gradientUnits="userSpaceOnUse">
<stop stop-color="#ED1E79"/>
<stop offset="1" stop-color="#6B00AA"/>
</linearGradient>
<linearGradient id="paint1_linear" x1="128.348" y1="113.362" x2="222.118" y2="19.5916" gradientUnits="userSpaceOnUse">
<stop stop-color="#ED1E79"/>
<stop offset="1" stop-color="#FFDA00"/>
</linearGradient>
<linearGradient id="paint2_linear" x1="106.548" y1="11.0022" x2="107.61" y2="5.57358" gradientUnits="userSpaceOnUse">
<stop stop-color="#F2F2F2"/>
<stop offset="0.1675" stop-color="#E8EAEB"/>
<stop offset="0.6948" stop-color="#CCD3D7"/>
<stop offset="1" stop-color="#C1CACF"/>
</linearGradient>
<linearGradient id="paint3_linear" x1="129.139" y1="33.2667" x2="135.866" y2="33.2667" gradientUnits="userSpaceOnUse">
<stop stop-color="#D9E5EC"/>
<stop offset="0.236" stop-color="#CED9E0"/>
<stop offset="0.6679" stop-color="#BFCAD0"/>
<stop offset="1" stop-color="#BAC4CA"/>
</linearGradient>
</defs>
</svg>
