<svg width="170" height="137" viewBox="0 0 170 137" fill="none" xmlns="http://www.w3.org/2000/svg">
<g style="mix-blend-mode:soft-light">
<path d="M21.2621 23.2619C15.6586 28.8655 11.3392 35.1694 8.18723 41.8236L39.8238 10.0703C33.1696 13.339 26.8656 17.6584 21.2621 23.2619Z" fill="white"/>
<path d="M56.1674 4.81718L2.93388 58.1674C2.58366 60.2687 2.23344 62.37 2.1167 64.4714L62.5881 4C60.37 4.23348 58.2687 4.46696 56.1674 4.81718Z" fill="white"/>
<path d="M73.6784 4L2 75.6784C2.11674 77.3128 2.35022 78.9471 2.5837 80.5815L78.5815 4.5837C76.9471 4.35022 75.3128 4.11674 73.6784 4Z" fill="white"/>
<path d="M87.5705 6.68506L4.685 89.5705C5.15196 90.9714 5.61892 92.3723 6.08588 93.6564L91.6564 8.08594C90.3722 7.50224 88.9713 7.03528 87.5705 6.68506Z" fill="white"/>
<path d="M99.3613 11.4712L9.47141 101.361C10.0551 102.528 10.7555 103.696 11.456 104.863L102.747 13.5725C101.696 12.7553 100.529 12.0549 99.3613 11.4712Z" fill="white"/>
<path d="M109.401 18.0088L16.1255 111.284C16.9427 112.335 17.7599 113.269 18.5771 114.319L112.319 20.5771C111.385 19.6431 110.335 18.826 109.401 18.0088Z" fill="white"/>
<path d="M117.923 26.0637L24.1806 119.923C25.1145 120.74 26.1652 121.674 27.2158 122.374L120.491 29.099C119.557 28.0483 118.74 27.1144 117.923 26.0637Z" fill="white"/>
<path d="M124.927 35.6367L33.6366 126.927C34.804 127.628 35.9714 128.328 37.1388 128.912L126.912 39.1389C126.328 37.9715 125.628 36.8041 124.927 35.6367Z" fill="white"/>
<path d="M130.414 46.7271L44.8436 132.414C46.2445 132.881 47.5287 133.348 48.9295 133.815L131.815 50.9297C131.348 49.4121 130.881 48.1279 130.414 46.7271Z" fill="white"/>
<path d="M133.916 59.9185L57.9185 135.916C59.5528 136.15 61.1872 136.383 62.8215 136.5L134.5 64.8215C134.266 63.1872 134.15 61.5528 133.916 59.9185Z" fill="white"/>
<path d="M134.383 75.9121L73.9119 136.383C76.0132 136.15 78.1145 135.917 80.2158 135.566L133.566 82.2161C133.916 80.1148 134.266 78.0134 134.383 75.9121Z" fill="white"/>
<path d="M96.6762 130.313C103.447 127.161 109.751 122.725 115.238 117.238C120.841 111.634 125.161 105.33 128.313 98.6763L96.6762 130.313Z" fill="white"/>
</g>
<path d="M15.9 83L9.2 89.7L2.5 83L0 85.5L6.7 92.2L0 98.9L2.5 101.4L9.2 94.7L15.9 101.4L18.5 98.9L11.7 92.2L18.5 85.5L15.9 83Z" fill="#052A6B"/>
<path d="M26.2 134.7C24 132.5 24 128.8 26.2 126.6L141.8 10.9C144 8.7 147.7 8.7 149.9 10.9C152.1 13.1 152.1 16.8 149.9 19L34.3 134.7C32 137 28.4 137 26.2 134.7Z" fill="url(#paint0_linear)"/>
<path d="M71 126.8C68.8 124.6 68.8 120.9 71 118.7L78.2 111.5C80.4 109.3 84.1 109.3 86.3 111.5C88.5 113.7 88.5 117.4 86.3 119.6L79.1 126.8C76.9 129 73.2 129 71 126.8Z" fill="url(#paint1_linear)"/>
<path d="M91.7 106.8C89.5 104.6 89.5 100.9 91.7 98.7L155.5 34.9C157.7 32.7 161.4 32.7 163.6 34.9C165.8 37.1 165.8 40.8 163.6 43L99.8 106.8C97.6 109 94 109 91.7 106.8Z" fill="url(#paint2_linear)"/>
<g filter="url(#filter0_d)">
<path d="M8.33007 35.1338L13.7579 17.7373L29.4547 24.4517L62.0219 15.2957C65.6894 14.2275 69.9437 16.3639 71.4107 19.8737L83.5867 47.7996L96.3495 53.2932L91.0683 69.6215C90.4815 71.3001 89.0146 72.5209 87.1075 73.1313L32.3887 88.0861C28.7212 89.1543 24.7604 86.8653 23.5868 83.2029L8.33007 39.4066C7.88998 37.8806 7.88998 36.3546 8.33007 35.1338Z" fill="url(#paint3_linear)"/>
<path d="M37.0126 58.0294L81.1794 44.4175L83.4964 49.6305L96.0948 54.8436L90.8816 70.3381C90.3024 71.931 88.8543 73.0894 86.9718 73.6687L32.9579 87.8598C31.5098 88.2943 30.0617 88.1494 28.7584 87.715L37.0126 58.0294Z" fill="url(#paint4_linear)"/>
<path d="M12.0748 23.4918C10.836 20.185 12.7068 16.5288 16.1133 15.5988L68.3447 1.33948C71.1755 0.566647 74.1501 1.95479 75.3761 4.62089L96.0294 49.5337C97.5823 52.9106 95.7226 56.8726 92.1327 57.8356L36.3383 72.8021C33.3537 73.6027 30.2492 72.0056 29.1651 69.1119L12.0748 23.4918Z" fill="url(#paint5_linear)"/>
<path d="M60.3272 21.8275C59.0239 22.262 58.2999 23.5652 58.8791 25.0133C59.4584 26.3166 60.9064 27.1854 62.2097 26.751C63.513 26.3166 64.2371 25.0133 63.6578 23.5652C63.2234 22.262 61.6305 21.5379 60.3272 21.8275Z" fill="white"/>
<path d="M50.9146 28.0543C45.4119 29.6472 42.6605 35.5843 44.9774 41.2318C47.2944 47.0241 53.666 50.3547 59.1688 48.7618C64.6715 47.1689 67.4229 41.2318 65.1059 35.5843C62.9338 29.9368 56.5622 26.4614 50.9146 28.0543ZM57.7207 45.1416C54.1004 46.1553 50.0458 43.9831 48.5977 40.2181C47.1496 36.5979 48.8873 32.6881 52.3627 31.6745C55.9829 30.6608 60.0376 32.8329 61.4857 36.5979C62.9338 40.3629 61.3409 44.128 57.7207 45.1416Z" fill="white"/>
<path d="M71.4775 57.3054L55.1141 61.9392C48.308 63.8217 40.6331 59.7671 37.8818 52.6715L31.2205 35.729C28.4691 28.7782 31.655 21.5378 38.461 19.5105L54.8245 14.8767C61.6305 12.9942 69.3054 17.0488 72.0568 24.1444L78.718 41.0869C81.4694 48.1825 78.1388 55.4229 71.4775 57.3054ZM40.0539 23.5651C35.42 24.8684 33.103 29.7919 35.1304 34.7153L41.7916 51.6579C43.6741 56.4365 49.0321 59.3327 53.666 58.0294L70.0294 53.3955C74.6633 52.0923 76.9803 47.1688 74.9529 42.2454L68.1469 25.4477C66.2644 20.669 60.9064 17.7728 56.2725 19.0761L40.0539 23.5651Z" fill="white"/>
</g>
<path d="M161.165 97.2109L158.085 87.8736L148.45 91.8469L128.285 86.3836C126.001 85.7876 123.418 86.9796 122.425 89.1649L114.875 105.753L107.028 109.031L110.306 118.667C110.703 119.66 111.498 120.355 112.69 120.753L146.364 129.693C148.649 130.289 151.033 128.997 151.827 126.812L161.065 99.7935C161.463 98.8995 161.363 98.0055 161.165 97.2109Z" fill="url(#paint6_linear)"/>
<path d="M143.98 111.018L116.465 102.476L114.975 105.754L107.127 109.032L110.405 118.667C110.803 119.66 111.597 120.355 112.789 120.753L146.463 129.693C147.357 129.891 148.251 129.891 149.046 129.593L143.98 111.018Z" fill="url(#paint7_linear)"/>
<path d="M143.384 120.455L109.71 111.515C107.425 110.919 106.432 108.733 107.326 106.548L119.345 79.9271C120.339 77.8411 122.921 76.5498 125.206 77.1458L155.304 85.2911C157.589 85.887 158.781 88.1717 157.986 90.357L148.748 117.375C148.053 119.759 145.669 121.051 143.384 120.455Z" fill="#428BDB"/>
<path d="M142.788 103.568L138.616 102.475L132.755 117.673L126.597 116.084L132.457 100.787L129.577 99.9921L131.663 94.6282L134.543 95.4228L135.934 91.9462C136.927 89.4629 139.51 85.8869 144.576 87.2776L149.145 88.5689L147.159 93.8335L143.881 92.9395C143.384 92.8402 142.49 92.8402 141.993 94.0321L140.801 97.2108L145.47 98.5021L142.788 103.568Z" fill="white"/>
<path d="M116.136 46.0688L124.348 44.147L133.608 29.6453C134.744 27.8982 137.103 27.1993 138.937 28.0729L156.933 36.4593L167.329 34.0133L169.164 43.6228C169.338 44.409 169.164 45.1952 168.727 45.9815L153.177 71.0535C152.129 72.8007 149.77 73.4122 147.935 72.5386L119.718 58.1244C118.757 57.6002 118.146 56.7266 117.883 55.7657L116.136 46.0688Z" fill="url(#paint8_linear)"/>
<path d="M145.402 31.1306L156.933 36.4595L167.329 34.0135L169.164 43.623C169.338 44.4092 169.164 45.1954 168.727 45.9817L153.177 71.0537C152.565 72.102 151.43 72.7135 150.294 72.8883L143.043 33.8388L145.402 31.1306Z" fill="url(#paint9_linear)"/>
<path d="M166.892 36.3721L151.342 61.4441C150.294 63.1913 147.935 63.8028 146.101 62.9292L117.884 48.515C116.049 47.554 115.437 45.4574 116.573 43.7102L131.774 19.9485C132.909 18.2014 135.268 17.5025 137.103 18.3761L165.407 31.5673C167.329 32.5283 167.941 34.6249 166.892 36.3721Z" fill="#E80808"/>
<path d="M152.219 36.7946L138.229 29.5502C137.28 29.0587 136.181 28.9505 135.175 29.2493C134.169 29.548 133.338 30.2294 132.865 31.1435L129.134 38.3497C128.66 39.2637 128.584 40.3356 128.92 41.3294C129.257 42.3233 129.979 43.1578 130.928 43.6493L144.919 50.8937C145.868 51.3852 146.966 51.4934 147.972 51.1946C148.978 50.8958 149.809 50.2145 150.282 49.3004L154.014 42.0942C154.487 41.1802 154.564 40.1083 154.227 39.1144C153.891 38.1206 153.169 37.2861 152.219 36.7946ZM145.65 42.8608L137.683 42.7087C137.589 42.7073 137.497 42.6824 137.414 42.6363C137.332 42.5902 137.263 42.5246 137.213 42.4457C137.163 42.3668 137.134 42.2772 137.13 42.1857C137.125 42.0942 137.144 42.0037 137.186 41.923L140.431 35.6568C140.472 35.5762 140.535 35.5082 140.613 35.4592C140.69 35.4102 140.78 35.382 140.873 35.3772C140.966 35.3724 141.06 35.3912 141.145 35.4318C141.23 35.4724 141.304 35.5335 141.359 35.609L146.081 42.0274C146.141 42.1082 146.177 42.2029 146.185 42.3009C146.194 42.399 146.175 42.4967 146.13 42.5832C146.085 42.6697 146.017 42.7416 145.931 42.7912C145.846 42.8407 145.748 42.8659 145.648 42.8639L145.65 42.8608Z" fill="white"/>
<path d="M98.6904 112.534L91.815 109.294L86.2831 94.6739C85.6508 92.9353 83.5961 91.9079 81.8575 92.3031L64.3924 96.4125L55.6204 92.3031L52.2222 100.522C51.9851 101.154 51.9061 101.944 52.1432 102.735L61.1523 127.786C61.7845 129.525 63.7602 130.552 65.4988 130.078L93.1585 122.57C94.1068 122.333 94.8181 121.622 95.2132 120.832L98.6904 112.534Z" fill="url(#paint10_linear)"/>
<path d="M75.5353 93.7257L64.3924 96.3335L55.6204 92.2241L52.2222 100.443C51.9851 101.075 51.9061 101.865 52.1432 102.656L61.1523 127.707C61.5474 128.735 62.3377 129.525 63.3651 129.841L77.1159 96.6496L75.5353 93.7257Z" fill="url(#paint11_linear)"/>
<path d="M55.5413 94.4368L64.5504 119.488C65.1826 121.227 67.1583 122.254 68.8969 121.78L96.5566 114.273C98.3742 113.798 99.2435 111.981 98.6113 110.242L89.6812 86.4551C89.049 84.7165 86.9943 83.6892 85.2557 84.0843L57.754 90.4855C55.9364 90.9597 54.909 92.6983 55.5413 94.4368Z" fill="#5D81AC"/>
<path fill-rule="evenodd" clip-rule="evenodd" d="M85.4393 95.0766C85.1057 94.935 84.0419 95.22 83.0175 95.4945C81.9652 95.8227 80.9014 96.1077 80.6881 96.2573C80.4748 96.4069 80.3207 97.8805 80.0715 99.472C79.7387 101.225 79.1974 102.987 78.6458 103.135C77.8972 103.335 77.3732 100.749 76.9322 98.7884C76.5973 97.5383 76.3357 97.1925 76.1041 97.116C75.6292 96.9198 74.4451 96.9136 74.4451 96.9136C74.4451 96.9136 71.0661 97.5418 71.0092 99.2204C71.6627 99.1377 72.7082 98.6266 73.5685 103.571C73.5868 103.797 73.6569 105.95 71.3926 103.646C70.8138 103.062 68.2817 99.443 67.7579 99.5371C66.0521 99.948 64.3348 100.316 63.8362 100.819C63.377 101.312 65.4165 103.722 68.577 106.849C71.1701 109.435 73.6572 111.31 77.0383 111.004C77.6918 110.922 79.2794 110.542 79.7223 110.147C79.9913 109.89 78.8926 107.365 79.9659 106.801C80.455 106.577 83.1874 108.895 84.0169 108.996C84.5475 109.085 85.5556 108.907 86.5569 108.546C87.6486 108.207 88.9556 108.042 88.8543 107.191C88.645 105.307 84.3848 103.907 84.0057 102.807C83.7074 102.009 84.6937 100.174 85.142 98.8527C85.595 97.3914 86.1295 95.4462 85.4393 95.0766Z" fill="white"/>
<defs>
<filter id="filter0_d" x="4" y="1.12695" width="96.5811" height="95.2227" filterUnits="userSpaceOnUse" color-interpolation-filters="sRGB">
<feFlood flood-opacity="0" result="BackgroundImageFix"/>
<feColorMatrix in="SourceAlpha" type="matrix" values="0 0 0 0 0 0 0 0 0 0 0 0 0 0 0 0 0 0 127 0"/>
<feOffset dy="4"/>
<feGaussianBlur stdDeviation="2"/>
<feColorMatrix type="matrix" values="0 0 0 0 0 0 0 0 0 0 0 0 0 0 0 0 0 0 0.25 0"/>
<feBlend mode="normal" in2="BackgroundImageFix" result="effect1_dropShadow"/>
<feBlend mode="normal" in="SourceGraphic" in2="effect1_dropShadow" result="shape"/>
</filter>
<linearGradient id="paint0_linear" x1="21.9998" y1="138.895" x2="228.596" y2="-67.7007" gradientUnits="userSpaceOnUse">
<stop stop-color="#ED1E79"/>
<stop offset="1" stop-color="#6B00AA"/>
</linearGradient>
<linearGradient id="paint1_linear" x1="45.6374" y1="152.13" x2="153.319" y2="44.4487" gradientUnits="userSpaceOnUse">
<stop stop-color="#ED1E79"/>
<stop offset="1" stop-color="#FFDA00"/>
</linearGradient>
<linearGradient id="paint2_linear" x1="46.0131" y1="152.506" x2="153.694" y2="44.8243" gradientUnits="userSpaceOnUse">
<stop stop-color="#ED1E79"/>
<stop offset="1" stop-color="#FFDA00"/>
</linearGradient>
<linearGradient id="paint3_linear" x1="14.8212" y1="58.8688" x2="25.7935" y2="55.0332" gradientUnits="userSpaceOnUse">
<stop stop-color="#D50879"/>
<stop offset="0.227" stop-color="#E12177"/>
<stop offset="0.5275" stop-color="#ED3C75"/>
<stop offset="0.7949" stop-color="#F44C74"/>
<stop offset="1" stop-color="#F75274"/>
</linearGradient>
<linearGradient id="paint4_linear" x1="60.9521" y1="65.3865" x2="64.6708" y2="79.5644" gradientUnits="userSpaceOnUse">
<stop stop-color="#D50879"/>
<stop offset="0.7168" stop-color="#A5167F"/>
<stop offset="1" stop-color="#921C81"/>
</linearGradient>
<linearGradient id="paint5_linear" x1="35.5158" y1="9.77664" x2="51.9723" y2="65.7612" gradientUnits="userSpaceOnUse">
<stop stop-color="#6656BC"/>
<stop offset="0.265625" stop-color="#BC438A"/>
<stop offset="0.481197" stop-color="#F52E8B"/>
<stop offset="0.71875" stop-color="#FF555B"/>
<stop offset="1" stop-color="#FFBC62"/>
</linearGradient>
<linearGradient id="paint6_linear" x1="150.521" y1="110.697" x2="158.962" y2="114.23" gradientUnits="userSpaceOnUse">
<stop stop-color="#4AADE5"/>
<stop offset="0.7595" stop-color="#3A81D0"/>
<stop offset="1" stop-color="#3572C9"/>
</linearGradient>
<linearGradient id="paint7_linear" x1="128.57" y1="117.303" x2="126.607" y2="125.154" gradientUnits="userSpaceOnUse">
<stop stop-color="#3572C9"/>
<stop offset="0.7978" stop-color="#2A5A9D"/>
<stop offset="1" stop-color="#275391"/>
</linearGradient>
<linearGradient id="paint8_linear" x1="132.651" y1="65.5325" x2="136.301" y2="58.2313" gradientUnits="userSpaceOnUse">
<stop stop-color="#674949"/>
<stop offset="1" stop-color="#B30A0A"/>
</linearGradient>
<linearGradient id="paint9_linear" x1="157.449" y1="52.5325" x2="163.019" y2="56.2457" gradientUnits="userSpaceOnUse">
<stop stop-color="#CC0A0A"/>
<stop offset="0.479167" stop-color="#C71B1B"/>
<stop offset="1" stop-color="#8C3838"/>
</linearGradient>
<linearGradient id="paint10_linear" x1="78.4917" y1="119.494" x2="80.1888" y2="126.113" gradientUnits="userSpaceOnUse">
<stop stop-color="#496F9D"/>
<stop offset="1" stop-color="#213E61"/>
</linearGradient>
<linearGradient id="paint11_linear" x1="55.8033" y1="112.47" x2="62.2409" y2="109.994" gradientUnits="userSpaceOnUse">
<stop stop-color="#365780"/>
<stop offset="1" stop-color="#5D81AC"/>
</linearGradient>
</defs>
</svg>
