<svg width="29" height="29" viewBox="0 0 29 29" fill="none" xmlns="http://www.w3.org/2000/svg">
<path fill-rule="evenodd" clip-rule="evenodd" d="M14.5 29C22.5081 29 29 22.5081 29 14.5C29 6.49187 22.5081 0 14.5 0C6.49187 0 0 6.49187 0 14.5C0 22.5081 6.49187 29 14.5 29ZM7.54466 7.05019C6.65027 7.88672 6.11364 9.50002 7.00803 11.9498C8.20054 15.0569 13.9842 20.8529 17.0251 21.9881C19.4698 22.8844 21.1393 22.3466 21.9741 21.5101C22.747 20.6802 22.4464 20.3114 22.0189 19.7869C21.9847 19.745 21.9497 19.7021 21.9144 19.6578C21.4374 19.0603 19.589 17.1482 19.589 17.1482C19.589 17.1482 19.112 16.5507 18.3965 17.0885C18.2296 17.214 18.0724 17.3752 17.9151 17.5366C17.3981 18.0668 16.8801 18.5982 16.0115 17.8653C14.1035 16.3715 12.6725 14.8777 11.1222 13.0254C10.4214 12.1914 10.911 11.6799 11.4094 11.1592C11.5895 10.9711 11.7707 10.7817 11.8973 10.5755C12.434 9.85853 11.8377 9.44026 11.8377 9.44026C11.8377 9.44026 9.92968 7.58796 9.33343 7.05019C9.29255 7.01743 9.25308 6.98522 9.21473 6.95393C8.6935 6.52864 8.37773 6.27101 7.54466 7.05019ZM13.5668 7.94647C12.7917 7.94647 12.7321 9.14151 13.5668 9.14151C17.0251 9.08175 19.8872 11.9498 19.8872 15.4752C19.8872 16.252 21.0797 16.252 21.0797 15.4752C21.0797 11.2926 17.681 7.88672 13.5668 7.94647ZM14.5805 10.6951C13.8053 10.6951 13.8053 11.8901 14.5805 11.8901C15.9519 11.8901 17.0848 13.0254 17.0848 14.3997C17.0848 15.1764 18.2773 15.1764 18.2773 14.3997C18.2773 12.3681 16.6077 10.6951 14.5805 10.6951Z" fill="#F7F4FE"/>
</svg>
