<svg width="41" height="39" viewBox="0 0 41 39" fill="none" xmlns="http://www.w3.org/2000/svg">
<g filter="url(#filter0_d)">
<path d="M24.3832 5.0035C24.0988 5.01522 23.8338 5.09263 23.6005 5.18074C23.382 5.26287 22.5471 5.59746 21.2321 6.12441C19.9159 6.65182 18.1732 7.35096 16.3141 8.09798C12.596 9.59202 8.41586 11.2738 6.27478 12.1345C6.19427 12.1669 5.91334 12.2508 5.61518 12.4683C5.31701 12.6858 5 13.1365 5 13.6387C5 14.0436 5.20654 14.4459 5.46651 14.6861C5.72648 14.9263 6.00156 15.045 6.23719 15.1348C7.09213 15.4608 9.74367 16.4747 10.2444 16.6661C10.4206 17.1705 11.3803 19.9138 11.6029 20.5861C11.7496 21.0298 11.8893 21.3076 12.0711 21.5282C12.162 21.6384 12.2677 21.7351 12.3958 21.8108C12.447 21.841 12.5031 21.8644 12.5598 21.8858L12.5632 21.8874C12.5763 21.8923 12.5876 21.9007 12.6008 21.905C12.6258 21.9132 12.6426 21.9141 12.676 21.921C12.8093 21.9612 12.9439 21.9864 13.0639 21.9864C13.5759 21.9864 13.8893 21.723 13.8893 21.723L13.9081 21.7102L16.5414 19.5817L19.7352 22.4048C19.7801 22.4642 20.1995 23.002 21.1244 23.002C21.6736 23.002 22.1093 22.7445 22.389 22.4702C22.6687 22.196 22.8429 21.9079 22.917 21.5457V21.5441C22.9863 21.2019 25.9297 7.08245 25.9297 7.08245L25.9245 7.10162C26.0107 6.73413 26.0333 6.39188 25.9382 6.05415C25.8431 5.71643 25.5926 5.39307 25.282 5.21906C24.9714 5.04509 24.6676 4.99178 24.3832 5.0035ZM24.2191 6.71201C24.2149 6.73587 24.2223 6.72387 24.2157 6.75193L24.214 6.76151L24.2123 6.77109C24.2123 6.77109 21.3054 20.7099 21.1979 21.2407C21.2058 21.2007 21.1698 21.2804 21.133 21.3286C21.0809 21.295 20.9741 21.2519 20.9741 21.2519L20.957 21.2344L16.5944 17.3782L13.5099 19.8691L14.4276 16.4362C14.4276 16.4362 20.1637 10.8879 20.5093 10.5649C20.7875 10.3066 20.8459 10.2165 20.8459 10.1274C20.8459 10.0081 20.7793 9.92146 20.6306 9.92146C20.4967 9.92146 20.3167 10.0431 20.2205 10.1003C18.9666 10.8471 13.462 13.8449 10.9945 15.1859C10.6024 15.036 7.87818 13.994 6.95489 13.6419C6.96188 13.639 6.95958 13.64 6.96685 13.6371C9.10849 12.7761 13.2869 11.0943 17.0045 9.60051C18.8633 8.8536 20.6074 8.15392 21.9225 7.62694C23.2173 7.10808 24.117 6.75098 24.2191 6.71201Z" fill="#08BDDB"/>
</g>
<defs>
<filter id="filter0_d" x="0" y="0.00195312" width="41" height="38" filterUnits="userSpaceOnUse" color-interpolation-filters="sRGB">
<feFlood flood-opacity="0" result="BackgroundImageFix"/>
<feColorMatrix in="SourceAlpha" type="matrix" values="0 0 0 0 0 0 0 0 0 0 0 0 0 0 0 0 0 0 127 0"/>
<feOffset dx="5" dy="5"/>
<feGaussianBlur stdDeviation="5"/>
<feColorMatrix type="matrix" values="0 0 0 0 0 0 0 0 0 0 0 0 0 0 0 0 0 0 0.2 0"/>
<feBlend mode="normal" in2="BackgroundImageFix" result="effect1_dropShadow"/>
<feBlend mode="normal" in="SourceGraphic" in2="effect1_dropShadow" result="shape"/>
</filter>
</defs>
</svg>
