<svg width="29" height="29" viewBox="0 0 29 29" fill="none" xmlns="http://www.w3.org/2000/svg">
<path d="M12.3657 17.3814C12.7579 17.6736 13.1508 17.9668 13.5441 18.2597C13.1335 18.6647 12.7223 19.07 12.3131 19.4747C12.275 19.5138 12.2394 19.5546 12.202 19.5945L12.2217 19.3265C12.2688 18.6785 12.3162 18.0295 12.3657 17.3814ZM15.5923 11.6684C13.5974 12.9267 11.6024 14.1885 9.60643 15.4461C9.56593 15.4713 9.52162 15.4911 9.47662 15.5115C9.73798 16.3471 9.99933 17.1831 10.26 18.0194C10.4462 18.6079 10.6394 19.195 10.8156 19.7859C10.8883 20.031 11.0143 20.1622 11.2801 20.1158C11.3539 19.1157 11.4245 18.1163 11.5 17.1159C11.5086 16.9993 11.5225 16.8809 11.5367 16.7642C11.4238 16.6995 11.4733 16.5756 11.5124 16.5347C11.5813 16.4638 11.6502 16.3914 11.7191 16.3194C11.7437 16.2966 11.7693 16.2734 11.7932 16.2505C11.8278 16.2145 11.8614 16.1785 11.8956 16.1429C12.0607 15.9892 12.2252 15.8327 12.3903 15.6783C12.4845 15.5894 12.5796 15.5001 12.6742 15.4114C12.9303 15.1716 13.1861 14.932 13.4468 14.6959C14.1094 14.0936 14.7854 13.5051 15.4494 12.9052C16.2957 12.1395 17.14 11.371 17.9784 10.5967C18.0401 10.5112 18.0799 10.4011 18.1339 10.3069C17.9836 10.327 17.8074 10.3021 17.688 10.3724C16.9822 10.793 16.2878 11.2302 15.5923 11.6684ZM29 14.5C29 22.5081 22.508 29 14.4998 29C6.49129 29 0 22.5081 0 14.5C0 6.49156 6.49129 0 14.4998 0C22.508 0 29 6.49156 29 14.5ZM20.9748 8.72326C20.9672 8.66788 20.9617 8.61111 20.9506 8.55676C20.8229 7.94128 20.4857 7.75539 19.882 7.96205C19.7934 7.99182 19.7027 8.01121 19.6127 8.03579C19.2759 8.17494 18.9425 8.32379 18.6008 8.45153C18.0345 8.66511 17.4627 8.86484 16.8915 9.07081C16.5432 9.21585 16.1974 9.36747 15.8461 9.50489C14.9658 9.84898 14.0837 10.1865 13.2021 10.5271C11.3875 11.2267 9.57251 11.9259 7.75653 12.6255C7.34874 12.783 6.9375 12.9322 6.53387 13.1001C6.17905 13.2466 5.81696 13.3885 5.49018 13.5851C5.34548 13.672 5.18625 13.9004 5.20286 14.0455C5.21879 14.1919 5.44276 14.3172 5.57984 14.4481C5.60476 14.472 5.64734 14.4796 5.68334 14.4907C6.64534 14.7884 7.60733 15.0861 8.57001 15.3831C8.56482 15.4834 8.57625 15.5859 8.60775 15.6873L8.95772 16.8099L9.41777 18.2828C9.47178 18.4539 9.52612 18.6217 9.57943 18.7896C9.71028 19.1998 9.84633 19.6235 9.96991 20.0382C10.2392 20.9379 10.9655 21.0075 11.1818 21.0075C11.214 21.0075 11.2483 21.0054 11.2822 21.004C11.3155 21.0054 11.3487 21.0064 11.3816 21.0064C11.9372 21.0064 12.2941 20.7004 12.5066 20.5173C12.5457 20.4831 12.5831 20.4515 12.6101 20.4308C12.6541 20.3979 12.6953 20.3622 12.7306 20.3224C12.7583 20.2937 12.7835 20.2639 12.8109 20.2355C12.8555 20.1857 12.8974 20.139 12.9345 20.1023C13.2574 19.7824 13.5797 19.4636 13.9034 19.1444L14.2869 18.7661C14.3409 18.8035 14.3949 18.8405 14.4493 18.8776C15.322 19.529 16.1933 20.1836 17.0691 20.8316C17.7226 21.3149 18.1796 21.1896 18.496 20.4512C18.6306 19.8285 18.7646 19.2043 18.8982 18.583C19.0207 17.9616 19.1419 17.342 19.2631 16.722C19.3409 16.3814 19.4178 16.0397 19.4946 15.6994C19.6989 14.7399 19.9028 13.7793 20.106 12.8194C20.1721 12.513 20.2368 12.207 20.3026 11.9007C20.3185 11.828 20.3376 11.7549 20.3521 11.6816C20.5605 10.6953 20.7675 9.70982 20.9748 8.72326Z" fill="#F7F4FE"/>
</svg>
